<svg width="144" height="40" viewBox="0 0 144 40" fill="none" xmlns="http://www.w3.org/2000/svg">
<path d="M143.419 11.6361C143.6 11.6361 143.742 11.6906 143.845 11.7993C143.949 11.9081 144 12.0576 144 12.248V15.9598C144 16.1502 143.949 16.2999 143.845 16.4087C143.742 16.5172 143.6 16.5717 143.419 16.5717H140.317V31.3207C140.317 31.5111 140.265 31.6606 140.161 31.7693C140.058 31.8781 139.916 31.9324 139.735 31.9324H135.082C134.901 31.9324 134.759 31.8781 134.656 31.7693C134.552 31.6606 134.5 31.5111 134.5 31.3207V16.5717H131.398C131.217 16.5717 131.075 16.5172 130.972 16.4087C130.868 16.2999 130.816 16.1502 130.816 15.9598V12.248C130.816 12.0576 130.868 11.9081 130.972 11.7993C131.075 11.6906 131.217 11.6361 131.398 11.6361H134.5V6.43839C134.5 6.248 134.552 6.09852 134.656 5.98976C134.759 5.88078 134.901 5.8265 135.082 5.8265H139.735C139.916 5.8265 140.058 5.88078 140.161 5.98976C140.265 6.09852 140.317 6.248 140.317 6.43839V11.6361H143.419Z" fill="white"/>
<path d="M121.038 16.6678C120.03 16.6678 119.164 16.967 118.44 17.5653C117.716 18.1363 117.251 18.9793 117.044 20.0943H124.877C124.696 18.9793 124.257 18.1363 123.558 17.5653C122.861 16.967 122.02 16.6678 121.038 16.6678ZM130.034 21.4402C130.034 22.3379 129.944 22.9905 129.763 23.3984C129.582 23.7792 129.207 23.9694 128.639 23.9694H117.122C117.406 25.0573 117.962 25.8865 118.789 26.4574C119.642 27.0015 120.715 27.2733 122.008 27.2733C122.654 27.2733 123.261 27.1917 123.83 27.0286C124.424 26.8382 125.045 26.5257 125.692 26.0904C125.821 25.9817 125.963 25.9272 126.118 25.9272C126.247 25.9272 126.389 26.0088 126.544 26.1721L128.561 28.2117C128.664 28.3203 128.716 28.4564 128.716 28.6196C128.716 28.7827 128.639 28.9459 128.484 29.109C127.553 30.0879 126.48 30.8492 125.265 31.3933C124.076 31.91 122.796 32.1682 121.426 32.1682C119.487 32.1682 117.742 31.706 116.191 30.7814C114.666 29.857 113.477 28.6058 112.623 27.0286C111.771 25.4514 111.344 23.7109 111.344 21.8074C111.344 19.9039 111.757 18.1634 112.584 16.5862C113.438 15.009 114.601 13.7716 116.075 12.8743C117.548 11.9497 119.19 11.4873 120.999 11.4873C122.783 11.4873 124.36 11.9362 125.731 12.8336C127.1 13.7309 128.16 14.9409 128.91 16.4639C129.66 17.9868 130.034 19.6454 130.034 21.4402Z" fill="white"/>
<path d="M99.1912 26.4574C100.381 26.4574 101.389 25.9816 102.216 25.0299C103.044 24.0779 103.457 22.9767 103.457 21.726C103.457 20.4748 103.044 19.3872 102.216 18.4625C101.389 17.5108 100.381 17.0348 99.1912 17.0348C97.9766 17.0348 96.9554 17.4972 96.1277 18.4218C95.3007 19.3191 94.8867 20.4203 94.8867 21.726C94.8867 23.0583 95.2875 24.1867 96.0891 25.1113C96.9165 26.0088 97.9502 26.4574 99.1912 26.4574ZM108.808 11.9361C108.989 11.9361 109.131 11.9904 109.235 12.0992C109.338 12.2079 109.39 12.3576 109.39 12.548V31.7602C109.39 33.7454 108.873 35.3498 107.839 36.5735C106.831 37.8245 105.551 38.7082 103.999 39.2251C102.474 39.7415 100.898 40 99.2687 40C97.6404 40 96.0763 39.7553 94.5768 39.2656C93.1031 38.8034 91.8498 38.1779 90.8152 37.3894C90.66 37.2806 90.5831 37.1312 90.5831 36.9405C90.5831 36.7775 90.6088 36.6552 90.66 36.5735L92.1726 33.7183C92.3281 33.5007 92.4827 33.392 92.6379 33.392C92.7675 33.392 92.8707 33.4191 92.9482 33.4736C93.8273 34.0172 94.7321 34.4118 95.6626 34.6564C96.6192 34.9011 97.6658 35.0235 98.8036 35.0235C100.122 35.0235 101.324 34.7243 102.41 34.1262C103.495 33.555 104.038 32.5897 104.038 31.23V29.3536C102.539 31.1484 100.678 32.0456 98.4549 32.0456C96.7224 32.0456 95.1586 31.5836 93.7621 30.6588C92.3667 29.7344 91.2678 28.4835 90.4667 26.906C89.691 25.329 89.3032 23.6157 89.3032 21.7667C89.3032 19.9174 89.691 18.2043 90.4667 16.6269C91.2678 15.0496 92.3667 13.7987 93.7621 12.8743C95.1586 11.9497 96.7224 11.4873 98.4549 11.4873C100.574 11.4873 102.384 12.3712 103.884 14.1386L103.999 12.548C104.052 12.1399 104.246 11.9361 104.581 11.9361H108.808Z" fill="white"/>
<path d="M87.3535 11.6361C87.5347 11.6361 87.6766 11.6906 87.78 11.7993C87.8832 11.9081 87.9353 12.0576 87.9353 12.248V15.9598C87.9353 16.1502 87.8832 16.2999 87.78 16.4087C87.6766 16.5172 87.5347 16.5717 87.3535 16.5717H84.2514V31.3207C84.2514 31.5111 84.1993 31.6606 84.0961 31.7693C83.9929 31.8781 83.8506 31.9324 83.6696 31.9324H79.0166C78.8359 31.9324 78.6936 31.8781 78.5895 31.7693C78.4863 31.6606 78.4351 31.5111 78.4351 31.3207V16.5717H75.3327C75.1518 16.5717 75.0097 16.5172 74.9058 16.4087C74.8024 16.2999 74.751 16.1502 74.751 15.9598V12.248C74.751 12.0576 74.8024 11.9081 74.9058 11.7993C75.0097 11.6906 75.1518 11.6361 75.3327 11.6361H78.4351V6.43839C78.4351 6.248 78.4863 6.09852 78.5895 5.98976C78.6936 5.88078 78.8359 5.8265 79.0166 5.8265H83.6696C83.8506 5.8265 83.9929 5.88078 84.0961 5.98976C84.1993 6.09852 84.2514 6.248 84.2514 6.43839V11.6361H87.3535Z" fill="white"/>
<path d="M66.7867 12.2331C66.7867 12.0427 66.8381 11.8932 66.9415 11.7845C67.0453 11.6757 67.1874 11.6212 67.3684 11.6212H72.0214C72.2024 11.6212 72.3445 11.6757 72.4477 11.7845C72.5517 11.8932 72.6031 12.0427 72.6031 12.2331V31.3058C72.6031 31.496 72.5517 31.6457 72.4477 31.7545C72.3445 31.8632 72.2024 31.9177 72.0214 31.9177H67.3684C67.1874 31.9177 67.0453 31.8632 66.9415 31.7545C66.8381 31.6457 66.7867 31.496 66.7867 31.3058V12.2331ZM69.6949 9.96746C68.8158 9.96746 68.0788 9.65472 67.4848 9.02926C66.8901 8.37667 66.5925 7.60152 66.5925 6.70404C66.5925 5.77963 66.8901 5.00448 67.4848 4.37902C68.0788 3.72642 68.8158 3.40012 69.6949 3.40012C70.574 3.40012 71.3108 3.72642 71.905 4.37902C72.4997 5.00448 72.7973 5.77963 72.7973 6.70404C72.7973 7.60152 72.4997 8.37667 71.905 9.02926C71.3108 9.65472 70.574 9.96746 69.6949 9.96746Z" fill="white"/>
<path d="M54.7505 26.3651C55.9397 26.3651 56.8833 26.0796 57.5813 25.5086C58.2794 24.9376 58.6283 24.081 58.6283 22.9387C58.6283 21.8239 58.2794 21.0078 57.5813 20.4913C56.8833 19.9473 55.9397 19.6755 54.7505 19.6755H50.4076V26.3651H54.7505ZM56.9997 11.599C56.9997 9.8585 55.9786 8.98837 53.9362 8.98837H50.4076V14.4543H53.9362C54.8926 14.4543 55.6423 14.2232 56.1852 13.7609C56.7283 13.2714 56.9997 12.5507 56.9997 11.599ZM59.3262 16.6979C60.7739 17.1058 62.0149 17.9352 63.049 19.1861C64.109 20.4368 64.6387 21.9462 64.6387 23.7138C64.6387 26.4603 63.7985 28.5269 62.1181 29.9139C60.4636 31.2734 57.9304 31.9534 54.518 31.9534H44.9787C44.7978 31.9534 44.6555 31.8991 44.5522 31.7903C44.4488 31.6816 44.397 31.5319 44.397 31.3417V4.01182C44.397 3.82164 44.4488 3.67195 44.5522 3.56319C44.6555 3.45442 44.7978 3.40014 44.9787 3.40014H54.4791C56.1852 3.40014 57.646 3.72645 58.8609 4.37904C60.1019 5.03164 61.0326 5.91555 61.653 7.03036C62.2993 8.14537 62.6225 9.3963 62.6225 10.7831C62.6225 12.1973 62.2993 13.4346 61.653 14.4952C61.0326 15.5557 60.2569 16.2897 59.3262 16.6979Z" fill="white"/>
<path d="M11.1501 0.856671C11.6426 0.310294 12.3325 0.000109249 13.0546 0.000109249H17.7289C18.3189 0.000109249 18.6249 0.728185 18.2227 1.17449L8.97863 11.4286H14.087L19.2812 17.143H8.97863L19.2812 28.5718H13.0546C12.3325 28.5718 11.6426 28.2614 11.1501 27.7152L0.699695 16.1226C-0.232906 15.0881 -0.232906 13.4838 0.699695 12.4493L11.1501 0.856671Z" fill="white"/>
<path d="M25.5163 39.1432C25.0238 39.6896 24.334 40 23.6118 40H18.9376C18.3476 40 18.0413 39.2719 18.4438 38.8254L27.6878 28.5715H22.5794L17.385 22.8571H27.6878L17.385 11.4283H23.6118C24.334 11.4283 25.0238 11.7385 25.5163 12.2849L35.9667 23.8775C36.8993 24.912 36.8993 26.5163 35.9667 27.5508L25.5163 39.1432Z" fill="white"/>
</svg>
