<svg width="50" height="50" viewBox="0 0 50 50" fill="none" xmlns="http://www.w3.org/2000/svg">
<path d="M45.4185 22.0909C46.1542 22.0915 46.8791 21.9224 47.5312 21.598C48.1832 21.2737 48.7429 20.8037 49.1624 20.2284C49.5818 19.6531 49.8486 18.9896 49.9398 18.2947C50.0309 17.5998 49.9438 16.8943 49.6859 16.2385C47.8757 11.6396 44.6834 7.64959 40.5069 4.76601C36.3305 1.88243 31.3546 0.232826 26.1999 0.0228754C21.0451 -0.187075 15.9394 1.05192 11.5194 3.58537C7.09944 6.11882 3.56074 9.83465 1.34448 14.2695C9.02405 6.921 20.58 4.518 30.32 9.09146C35.0802 11.3343 38.9178 15.0253 41.2245 19.5794C41.6037 20.3318 42.1987 20.9668 42.9408 21.4112C43.6829 21.8556 44.5418 22.0912 45.4185 22.0909Z" fill="white"/>
<path d="M0.0167824 23.3855C5.71742 15.2928 13.8042 10.0682 25.2624 8.80467C25.2624 8.80467 14.8058 7.34736 6.00243 13.0371C1.44192 16.0137 -0.186812 19.3469 0.0167824 23.3855Z" fill="white"/>
<path d="M4.56095 27.9048C3.82524 27.9042 3.10034 28.0733 2.44831 28.3977C1.79629 28.722 1.23661 29.192 0.817126 29.7673C0.397646 30.3426 0.130898 31.0061 0.0397307 31.701C-0.0514369 32.3959 0.0356678 33.1014 0.293627 33.7573C2.10291 38.3565 5.29454 42.3471 9.47052 45.2315C13.6465 48.1158 18.6221 49.7662 23.7769 49.977C28.9318 50.1878 34.0377 48.9496 38.4582 46.4167C42.8787 43.8839 46.4181 40.1686 48.6351 35.7339C40.9473 43.0825 29.3913 45.4855 19.6595 40.9043C14.894 38.6535 11.0558 34.951 8.75501 30.3853C8.36886 29.6404 7.77139 29.0133 7.03018 28.5749C6.28897 28.1366 5.43359 27.9044 4.56095 27.9048Z" fill="white"/>
<path d="M49.9869 26.6184C44.2862 34.7034 36.1913 39.9279 24.7412 41.1992C24.7412 41.1992 35.1897 42.6488 43.9931 36.9668C48.5373 33.9902 50.166 30.6493 49.9869 26.6184Z" fill="white"/>
<path d="M29.7334 27.9046C29.7335 28.3454 29.5517 28.7686 29.2273 29.0832C28.9029 29.3978 28.4617 29.5786 27.9987 29.5867H22.2977C22.2826 29.5867 22.2681 29.581 22.2574 29.5708C22.2467 29.5606 22.2407 29.5468 22.2407 29.5324V26.2845C22.2407 26.2701 22.2467 26.2563 22.2574 26.2461C22.2681 26.2359 22.2826 26.2302 22.2977 26.2302H27.9987C28.4603 26.2383 28.9003 26.418 29.2245 26.731C29.5487 27.0439 29.7313 27.4651 29.7334 27.9046Z" fill="white"/>
<path d="M29.7334 22.1065C29.7335 22.5473 29.5517 22.9705 29.2273 23.2851C28.9029 23.5997 28.4617 23.7805 27.9987 23.7886H22.2977C22.2826 23.7886 22.2681 23.7829 22.2574 23.7727C22.2467 23.7625 22.2407 23.7487 22.2407 23.7343V20.4864C22.2407 20.472 22.2467 20.4582 22.2574 20.448C22.2681 20.4378 22.2826 20.4321 22.2977 20.4321H27.9987C28.4603 20.4402 28.9003 20.62 29.2245 20.9329C29.5487 21.2458 29.7313 21.667 29.7334 22.1065Z" fill="white"/>
<path d="M24.847 13.3784C22.431 13.3784 20.0692 14.0604 18.0604 15.338C16.0515 16.6156 14.4858 18.4316 13.5612 20.5562C12.6366 22.6809 12.3947 25.0188 12.8661 27.2743C13.3374 29.5298 14.5008 31.6016 16.2092 33.2277C17.9176 34.8538 20.0943 35.9612 22.4639 36.4099C24.8335 36.8585 27.2896 36.6283 29.5217 35.7482C31.7538 34.8682 33.6617 33.3778 35.004 31.4657C36.3462 29.5536 37.0627 27.3055 37.0627 25.0059C37.0627 21.9221 35.7756 18.9646 33.4848 16.784C31.1939 14.6034 28.0868 13.3784 24.847 13.3784ZM31.6308 26.2229C31.8639 26.7092 31.9807 27.2387 31.9728 27.7732C31.9759 28.7776 31.6043 29.7505 30.9243 30.5185C30.2442 31.2865 29.2998 31.7997 28.2593 31.9668V32.959C28.2593 32.9878 28.2472 33.0154 28.2258 33.0358C28.2045 33.0561 28.1755 33.0675 28.1452 33.0675H25.8975C25.8829 33.0676 25.8684 33.0647 25.855 33.0592C25.8416 33.0537 25.8296 33.0455 25.8197 33.0353C25.8097 33.0251 25.8021 33.0131 25.7973 33C25.7925 32.9868 25.7905 32.9729 25.7917 32.959V32.1296C25.7917 32.1008 25.7797 32.0732 25.7583 32.0529C25.7369 32.0325 25.7079 32.0211 25.6777 32.0211H22.1026C22.0723 32.0211 22.0433 32.0325 22.0219 32.0529C22.0006 32.0732 21.9885 32.1008 21.9885 32.1296V32.959C21.9885 32.9878 21.9765 33.0154 21.9551 33.0358C21.9338 33.0561 21.9048 33.0675 21.8745 33.0675H19.5861C19.5559 33.0675 19.5269 33.0561 19.5055 33.0358C19.4841 33.0154 19.4721 32.9878 19.4721 32.959V32.1296C19.4721 32.1008 19.4601 32.0732 19.4387 32.0529C19.4174 32.0325 19.3884 32.0211 19.3581 32.0211H17.8434C17.8132 32.0211 17.7842 32.0096 17.7628 31.9893C17.7414 31.9689 17.7294 31.9413 17.7294 31.9126V29.7731C17.7294 29.7443 17.7414 29.7167 17.7628 29.6964C17.7842 29.676 17.8132 29.6646 17.8434 29.6646H19.3581C19.3727 29.6657 19.3873 29.6638 19.4011 29.6593C19.4149 29.6547 19.4276 29.6474 19.4383 29.638C19.449 29.6285 19.4575 29.617 19.4633 29.6043C19.4692 29.5915 19.4722 29.5777 19.4721 29.5638V20.4401C19.4721 20.4114 19.4601 20.3838 19.4387 20.3634C19.4174 20.3431 19.3884 20.3316 19.3581 20.3316H17.8434C17.8132 20.3316 17.7842 20.3202 17.7628 20.2998C17.7414 20.2795 17.7294 20.2519 17.7294 20.2231V18.0759C17.7294 18.0471 17.7414 18.0195 17.7628 17.9992C17.7842 17.9788 17.8132 17.9674 17.8434 17.9674H19.3581C19.3884 17.9674 19.4174 17.9559 19.4387 17.9356C19.4601 17.9152 19.4721 17.8876 19.4721 17.8589V17.0837C19.4721 17.0549 19.4841 17.0273 19.5055 17.007C19.5269 16.9866 19.5559 16.9752 19.5861 16.9752H21.8745C21.9048 16.9752 21.9338 16.9866 21.9551 17.007C21.9765 17.0273 21.9885 17.0549 21.9885 17.0837V17.8589C21.9885 17.8876 22.0006 17.9152 22.0219 17.9356C22.0433 17.9559 22.0723 17.9674 22.1026 17.9674H25.6777C25.7079 17.9674 25.7369 17.9559 25.7583 17.9356C25.7797 17.9152 25.7917 17.8876 25.7917 17.8589V17.0837C25.7905 17.0698 25.7925 17.0559 25.7973 17.0427C25.8021 17.0296 25.8097 17.0176 25.8197 17.0074C25.8296 16.9972 25.8416 16.9891 25.855 16.9835C25.8684 16.978 25.8829 16.9751 25.8975 16.9752H28.1452C28.1755 16.9752 28.2045 16.9866 28.2258 17.007C28.2472 17.0273 28.2593 17.0549 28.2593 17.0837V17.9131C28.259 17.9394 28.2687 17.9649 28.2867 17.9849C28.3047 18.0048 28.3296 18.0179 28.357 18.0216C29.3614 18.1596 30.2799 18.6377 30.944 19.3681C31.6082 20.0984 31.9734 21.0323 31.9728 21.9982C31.9709 23.1309 31.4998 24.2172 30.6617 25.0214C31.069 25.3625 31.3988 25.7793 31.6308 26.2461V26.2229Z" fill="white"/>
</svg>
