<svg width="42" height="50" viewBox="0 0 42 50" fill="none" xmlns="http://www.w3.org/2000/svg">
<g clip-path="url(#clip0_26_752)">
<path d="M36.2703 24.2331C38.3978 21.5661 39.5527 18.2645 39.5472 14.8648C39.5472 6.50178 32.7097 0 24.2741 0H5.72778V1.89146H23.863C31.3181 1.89146 37.362 7.6121 37.362 15C37.3665 17.8721 36.4344 20.6688 34.7046 22.9733L36.2703 24.2331Z" fill="white"/>
<path d="M34.2019 22.6673C36.2316 20.6226 37.3674 17.8683 37.3639 15.0001C37.3639 12.0972 36.2003 9.31312 34.1292 7.26029C32.058 5.20745 29.2488 4.05394 26.3194 4.05347H10.637V5.9467H26.727C27.9093 5.946 29.0801 6.17616 30.1726 6.62403C31.265 7.07189 32.2577 7.72869 33.094 8.55688C33.9302 9.38508 34.5936 10.3684 35.0462 11.4508C35.4988 12.5331 35.7317 13.6933 35.7317 14.8649C35.7333 16.1657 35.4469 17.4511 34.8928 18.6304C34.3388 19.8097 33.5305 20.8543 32.5249 21.6905L34.2019 22.6673Z" fill="white"/>
<path d="M31.1764 21.2403C33.7566 20.1228 35.7318 17.6887 35.7318 14.8648C35.7318 10.984 32.0114 7.83813 28.0952 7.83813H14.4543V8.91821H27.9552C31.1872 8.91821 34.3635 11.5214 34.3635 14.7296C34.3635 17.3292 32.2843 19.5339 29.7723 20.2723L31.1764 21.2403Z" fill="white"/>
<path d="M0.272949 48.1086H3.27333V50.0001H0.272949V48.1086Z" fill="white"/>
<path d="M3.27319 44.3237H15.2729V45.6743H3.27319V44.3237Z" fill="white"/>
<path d="M3.27319 35.9465H16.0917V37.0284H3.27319V35.9465Z" fill="white"/>
<path d="M18.5464 35.9465H26.7288V37.0284H18.5464V35.9465Z" fill="white"/>
<path d="M5.72778 32.1619H10.091V33.2437H5.72778V32.1619Z" fill="white"/>
<path d="M12.5457 32.1619H26.727V33.2437H12.5457V32.1619Z" fill="white"/>
<path d="M17.1816 15.1353H26.4539V16.2171H17.1816V15.1353Z" fill="white"/>
<path d="M6.27368 7.83813H11.4557V8.91999H6.27368V7.83813Z" fill="white"/>
<path d="M7.63647 11.8914H26.7269V12.9732H7.63647V11.8914Z" fill="white"/>
<path d="M2.72754 15.1353H14.4544V16.2171H2.72754V15.1353Z" fill="white"/>
<path d="M6.00073 47.838V49.7295H26.7269C35.1661 49.7295 42 43.2242 42 34.8647C42 30.8506 40.3908 27.0009 37.5266 24.1625C34.6623 21.3241 30.7776 19.7295 26.7269 19.7295H13.3643V21.3523H26.3193C29.8996 21.3527 33.3332 22.7625 35.8647 25.2715C38.3962 27.7805 39.8184 31.1832 39.8184 34.7313C39.8184 42.121 33.7745 47.8398 26.3193 47.8398L6.00073 47.838Z" fill="white"/>
<path d="M9.27222 23.783V25.6762H29.1814C30.3634 25.676 31.5338 25.9065 32.6259 26.3545C33.7179 26.8026 34.7102 27.4595 35.5461 28.2876C36.3819 29.1158 37.045 30.099 37.4974 31.1811C37.9497 32.2632 38.1826 33.423 38.1826 34.5943C38.1826 36.9601 37.2342 39.2289 35.5462 40.9017C33.8581 42.5745 31.5687 43.5143 29.1814 43.5143H17.4546V45.6762H28.7666C30.2172 45.6762 31.6535 45.393 32.9936 44.8429C34.3337 44.2928 35.5513 43.4864 36.5769 42.4699C37.6025 41.4534 38.416 40.2466 38.9709 38.9185C39.5259 37.5904 39.8114 36.167 39.8111 34.7296C39.8111 31.8267 38.6476 29.0426 36.5764 26.9898C34.5052 24.9369 31.696 23.7834 28.7666 23.783H9.27222Z" fill="white"/>
<path d="M15.0001 27.8381V28.9182H30.4096C33.6417 28.9182 36.818 31.5214 36.818 34.7296C36.818 37.9324 33.6488 40.541 30.4096 40.541H0V41.8915H30.5461C34.4622 41.8915 38.1826 38.7456 38.1826 34.8648C38.1826 30.984 34.4622 27.8381 30.5461 27.8381H15.0001Z" fill="white"/>
</g>
<defs>
<clipPath id="clip0_26_752">
<rect width="42" height="50" fill="white"/>
</clipPath>
</defs>
</svg>
