<svg width="145" height="40" viewBox="0 0 145 40" fill="none" xmlns="http://www.w3.org/2000/svg">
<g clip-path="url(#clip0_26_787)">
<path d="M47.2235 25.263C47.2235 26.0031 47.3685 26.6903 47.6353 27.3305C47.9021 27.9708 48.2675 28.5346 48.7257 29.028C49.6711 30.0089 50.9819 30.5787 52.3449 30.5787C53.7021 30.5787 55.0129 30.0148 55.9583 29.028C56.9327 28.0178 57.4663 26.6668 57.4373 25.263C57.4373 23.865 56.9037 22.5082 55.9583 21.5038C55.5001 21.0104 54.9375 20.6462 54.3343 20.3702C53.7021 20.1 53.0235 19.9531 52.3449 19.9531C50.9877 19.9531 49.6711 20.517 48.7257 21.5038C48.2617 21.9972 47.8789 22.5611 47.6353 23.2013C47.3453 23.8357 47.2235 24.5464 47.2235 25.263ZM42.9257 10.6609C42.9257 10.3437 42.9721 10.0442 43.0939 9.7505C43.1925 9.48031 43.3607 9.23361 43.5579 9.01041C43.7551 8.8107 43.9929 8.64037 44.2365 8.51702C44.5033 8.39367 44.7933 8.34668 45.0833 8.34668C45.3965 8.34668 45.6633 8.39367 45.9359 8.51702C46.4463 8.76371 46.8581 9.20424 47.0495 9.74462C47.1481 10.0148 47.1945 10.332 47.1945 10.655V18.1793C47.4149 17.7857 47.7049 17.4392 48.0703 17.0985C48.4357 16.7578 48.8707 16.4876 49.3347 16.241C49.7987 15.9943 50.2801 15.8004 50.7905 15.6536C51.3009 15.5067 51.8113 15.4304 52.3217 15.4304C53.5861 15.4304 54.8215 15.6771 55.9641 16.194C57.0835 16.6874 58.0985 17.3981 58.9511 18.3085C59.7979 19.2189 60.4823 20.2762 60.9637 21.4333C61.4509 22.6374 61.7177 23.9414 61.7177 25.2454C61.7177 26.5493 61.4741 27.8533 60.9637 29.0339C60.4765 30.191 59.7979 31.2189 58.9511 32.1294C58.0985 33.0104 57.0835 33.727 55.9641 34.2204C54.8215 34.7373 53.5861 35.0075 52.3217 34.984C51.0573 34.984 49.8219 34.7373 48.6793 34.2204C47.5657 33.727 46.5449 33.0163 45.6923 32.1294C44.8165 31.2424 44.1379 30.1852 43.6507 29.0339C43.1403 27.8298 42.8967 26.5493 42.8967 25.2454V10.6609H42.9257ZM64.5307 17.6624C64.5307 16.7755 65.0643 15.9649 65.8647 15.6242C66.1315 15.5009 66.4215 15.4539 66.7115 15.4539C67.0015 15.4539 67.2683 15.5009 67.5351 15.6242C68.0455 15.8709 68.4341 16.2879 68.6255 16.8048C68.7241 17.075 68.7937 17.3687 68.7937 17.6624V32.7578C68.7937 33.3452 68.5733 33.8856 68.1905 34.332C67.9933 34.5258 67.7787 34.702 67.5119 34.796C67.2451 34.9194 66.9783 34.9664 66.6883 34.9664C66.3983 34.9664 66.1025 34.9194 65.8647 34.796C65.3543 34.5728 64.9193 34.1558 64.6989 33.6154C64.5771 33.3452 64.5307 33.0515 64.5307 32.7578V17.6624ZM64.3625 11.0251C64.3625 10.3849 64.6061 9.76812 65.0411 9.30409C65.2615 9.08089 65.5051 8.91056 65.7719 8.78721C66.0619 8.66386 66.3519 8.5875 66.6941 8.5875C67.0073 8.5875 67.2973 8.65799 67.5931 8.78721C67.8831 8.91056 68.1267 9.08089 68.3239 9.30409C68.5443 9.5273 68.7125 9.77399 68.8343 10.0677C68.9561 10.3614 69.0257 10.6844 69.0257 11.0016C69.0257 11.3423 68.9561 11.6653 68.8343 11.959C68.7125 12.2527 68.5443 12.4994 68.3239 12.7226C68.1035 12.9458 67.8599 13.1161 67.5931 13.2395C67.3031 13.3628 67.0131 13.4392 66.6941 13.4392C66.3519 13.4392 66.0619 13.3628 65.7719 13.2395C65.5051 13.1161 65.2383 12.9458 65.0411 12.7226C64.6061 12.2821 64.3625 11.6653 64.3625 11.0251ZM71.5951 11.8885C71.5951 10.9781 72.1055 10.1675 72.9291 9.79749C73.1959 9.67414 73.4627 9.62715 73.7527 9.62715C74.3385 9.62715 74.8953 9.85035 75.3071 10.2674C75.5043 10.4612 75.6725 10.7079 75.7943 10.9781C75.9161 11.2483 75.9857 11.542 75.9857 11.865V15.1132H82.7369C83.0269 15.1132 83.3169 15.1602 83.5837 15.2835C84.0941 15.5067 84.5059 15.9473 84.7263 16.4642C84.8481 16.7343 84.8945 17.028 84.8945 17.3276C84.8945 17.6213 84.8481 17.8915 84.7263 18.1617C84.3899 18.9487 83.6127 19.4656 82.7369 19.4656H75.9857V25.3158C75.9857 26.0559 76.1075 26.7432 76.3743 27.3834C76.6411 28.0236 76.9833 28.564 77.4415 29.0515C77.8765 29.5214 78.4159 29.8856 79.0191 30.1558C79.6223 30.426 80.2835 30.5493 81.0085 30.5493C81.6407 30.5493 82.2207 30.4495 82.7543 30.2791C83.2879 30.0794 83.7983 29.7857 84.2623 29.3687C84.5291 29.1455 84.7727 28.9517 85.0163 28.8283C85.2599 28.6815 85.5499 28.6051 85.8921 28.6051C86.1357 28.6051 86.3793 28.6521 86.5939 28.7755C86.8375 28.8753 87.0289 29.0222 87.2029 29.216C87.3711 29.4157 87.5161 29.633 87.6379 29.9032C87.7597 30.1734 87.8061 30.4436 87.8061 30.7373C87.8061 31.0838 87.7307 31.4245 87.6089 31.7476C87.4871 32.0647 87.2957 32.3584 87.0289 32.6051C86.2517 33.3922 85.3063 34.0031 84.2855 34.4025C83.2647 34.796 82.1743 34.9899 81.0085 34.9899C79.7441 34.9899 78.4855 34.7432 77.3197 34.2263C76.2003 33.7329 75.1853 33.0457 74.3327 32.1587C73.4801 31.2718 72.8015 30.2145 72.3201 29.0868C71.8097 27.8827 71.5661 26.5787 71.5661 25.2747V11.8885H71.5951ZM90.6249 25.7035C90.6249 24.3291 90.8917 22.9722 91.4021 21.7211C91.8893 20.517 92.6143 19.3834 93.5133 18.4495C94.4123 17.5155 95.4795 16.7755 96.6453 16.2351C97.8343 15.6947 99.1451 15.4245 100.456 15.4245H100.502C101.204 15.4245 101.767 15.6183 102.126 16.0354C102.515 16.4524 102.706 16.9928 102.706 17.633C102.706 17.9502 102.66 18.2439 102.538 18.52C102.44 18.7901 102.271 19.0368 102.074 19.2307C101.662 19.6477 101.077 19.8709 100.497 19.8709H100.398C99.6671 19.8709 98.9653 20.0412 98.3099 20.3408C97.6545 20.6345 97.0687 21.0515 96.5641 21.5684C96.0537 22.0853 95.6651 22.6727 95.3519 23.3658C95.0387 24.053 94.8879 24.8166 94.8879 25.5802V32.5875C94.8879 32.8812 94.8415 33.1807 94.7197 33.4509C94.5979 33.7211 94.4529 33.9443 94.2847 34.1617C94.0933 34.3614 93.8729 34.5317 93.6293 34.6316C93.0957 34.8548 92.5099 34.8548 91.9763 34.6316C91.7095 34.5082 91.4659 34.3614 91.2745 34.1617C90.8627 33.7446 90.6191 33.1807 90.6191 32.5875L90.6249 25.7035ZM105.508 17.6389C105.508 17.0457 105.728 16.5053 106.117 16.0647C106.308 15.865 106.529 15.6947 106.795 15.5948C107.062 15.4715 107.329 15.4245 107.619 15.4245C108.205 15.4245 108.738 15.6477 109.15 16.0647C109.347 16.2644 109.487 16.5053 109.614 16.7755C109.736 17.0457 109.782 17.3393 109.782 17.6389V25.5802C109.782 26.2909 109.904 26.9311 110.148 27.5479C110.612 28.7285 111.534 29.6624 112.671 30.1793C113.251 30.426 113.883 30.5493 114.562 30.5493C115.774 30.5728 116.963 30.0324 117.769 29.0985C118.158 28.6286 118.471 28.0882 118.639 27.5244C118.836 26.9135 118.952 26.2439 118.952 25.5567V17.6624C118.952 17.075 119.196 16.5053 119.608 16.0882C119.805 15.8944 120.043 15.7182 120.309 15.6183C120.576 15.495 120.843 15.448 121.133 15.448C121.69 15.448 122.223 15.6712 122.612 16.0882C123.001 16.5053 123.221 17.075 123.221 17.6624V25.5567C123.221 26.8606 123.001 28.0882 122.566 29.2454C122.154 30.3496 121.545 31.3599 120.744 32.2468C119.967 33.1044 119.045 33.7975 118.001 34.285C116.934 34.7784 115.791 35.0251 114.556 35.0251C113.291 35.0251 112.126 34.7784 111.012 34.285C109.922 33.7916 108.947 33.1044 108.124 32.2468C106.424 30.4495 105.479 28.0706 105.479 25.5625V17.6448H105.508V17.6389ZM130.825 27.2542C131.161 28.2644 131.77 29.122 132.6 29.7622C133.011 30.0559 133.446 30.3026 133.957 30.473C134.444 30.6433 134.978 30.7432 135.511 30.7432C136.091 30.7432 136.555 30.6962 136.944 30.5963C137.309 30.4965 137.675 30.3261 138.011 30.1264C138.475 29.8562 138.887 29.7094 139.275 29.7094C139.565 29.7094 139.855 29.7799 140.099 29.9091C140.366 30.0324 140.586 30.2028 140.754 30.426C141.143 30.8665 141.358 31.4363 141.358 32.0236C141.358 32.4642 141.213 32.8812 140.946 33.2512C140.656 33.6213 140.267 33.9385 139.757 34.2086C139.177 34.5023 138.545 34.702 137.912 34.796C137.135 34.9429 136.335 35.0192 135.534 35.0192C134.27 35.0192 133.035 34.7725 131.869 34.2556C130.749 33.7622 129.705 33.0515 128.859 32.1646C127.983 31.2835 127.304 30.2263 126.817 29.0691C126.307 27.865 126.063 26.5846 126.063 25.2806C126.063 23.9766 126.307 22.6727 126.817 21.4451C127.304 20.2879 127.983 19.2307 128.859 18.3496C129.734 17.4627 130.749 16.752 131.869 16.2586C133.035 15.7417 134.27 15.4715 135.534 15.495C136.822 15.495 138.034 15.7417 139.177 16.2586C140.319 16.7755 141.311 17.4627 142.164 18.3261C143.034 19.2131 143.718 20.241 144.205 21.3981C144.716 22.5787 144.983 23.8298 145.006 25.1866C145.006 25.8269 144.809 26.3437 144.426 26.7373C144.037 27.1308 143.527 27.3305 142.918 27.3305L130.825 27.2542ZM140.557 23.5126C140.412 22.9722 140.169 22.4318 139.855 21.962C139.542 21.4921 139.177 21.1044 138.742 20.7578C138.307 20.4113 137.82 20.1411 137.286 19.9708C136.752 19.7711 136.167 19.7006 135.563 19.7006C134.954 19.7006 134.398 19.8004 133.864 19.9943C133.33 20.194 132.843 20.4642 132.431 20.8048C132.02 21.1455 131.631 21.5684 131.341 22.0089C131.051 22.4788 130.807 22.9664 130.686 23.5067H140.557V23.5126Z" fill="white"/>
<path fill-rule="evenodd" clip-rule="evenodd" d="M22.3764 37.4744L18.6586 39.6477C17.8698 40.1117 16.9302 40.0765 16.1936 39.6477V39.6536L8.7174 35.2836C8.671 35.2542 8.6304 35.2307 8.584 35.2013L1.2354 30.9076C0.4466 30.4436 0.0058 29.6037 0.0058 28.7402H0V19.9943C0 19.9414 0 19.8944 0.0058 19.8416V18.5317L4.9474 15.6418V19.8416C4.9532 19.8944 4.9532 19.9473 4.9532 20.0001V27.2953L22.3764 37.4744Z" fill="white"/>
<path fill-rule="evenodd" clip-rule="evenodd" d="M29.8759 6.90747L33.6169 9.09249C34.4057 9.55652 34.8465 10.3965 34.8465 11.2599H34.8523V20.0059C34.8523 20.0587 34.8523 20.1057 34.8465 20.1586V28.7401C34.8465 29.6681 34.3477 30.4787 33.6111 30.9075L24.8879 36.0117L19.9463 33.1219L29.9049 27.301L29.8759 6.90747Z" fill="white"/>
<path fill-rule="evenodd" clip-rule="evenodd" d="M18.6589 0.346606L26.1351 4.71665C26.1815 4.74602 26.2221 4.76951 26.2685 4.79888L27.3705 5.44499V11.2189L23.7977 9.13368C23.7513 9.11019 23.7107 9.08669 23.6643 9.0632L17.4235 5.40975L0.00610352 15.6006V11.26C0.00610352 10.3319 0.499103 9.52135 1.2415 9.09257L16.1881 0.346606C16.9827 -0.111544 17.9165 -0.0821749 18.6589 0.346606Z" fill="white"/>
<path d="M17.3999 30.3027C15.3931 30.3027 13.5719 29.4803 12.2553 28.147C10.9387 26.8137 10.1267 24.9693 10.1267 22.937C10.1267 19.589 10.1441 16.2527 10.1325 12.8577L14.4477 10.3379L14.4013 16.1822V16.2292C15.3061 15.8004 16.3269 15.5655 17.3999 15.5655C19.4067 15.5655 21.2279 16.3878 22.5445 17.7212C23.8611 19.0545 24.6731 20.8988 24.6731 22.9311C24.6731 24.9634 23.8611 26.8078 22.5445 28.1411C21.2279 29.4745 19.4067 30.3027 17.3999 30.3027ZM15.2655 25.0927C15.8107 25.6448 16.5647 25.9855 17.3941 25.9855C18.2235 25.9855 18.9775 25.6448 19.5227 25.0927C20.0679 24.5405 20.4043 23.777 20.4043 22.937C20.4043 22.0971 20.0679 21.3335 19.5227 20.7814C18.9775 20.2292 18.2235 19.8886 17.3941 19.8886C16.5647 19.8886 15.8107 20.2292 15.2655 20.7814C14.7203 21.3335 14.3839 22.0971 14.3839 22.937C14.3839 23.777 14.7203 24.5405 15.2655 25.0927Z" fill="white"/>
</g>
<defs>
<clipPath id="clip0_26_787">
<rect width="145" height="40" fill="white"/>
</clipPath>
</defs>
</svg>
