<svg xmlns="http://www.w3.org/2000/svg" width="174" height="40" viewBox="0 0 174 40" fill="none">
<g mask="url(#mask0_26_590)">
<path fill-rule="evenodd" clip-rule="evenodd" d="M144.049 11.8876H148.991V6.92578H144.049V11.8876ZM117.784 20.1506C118.728 17.6365 121.146 15.8465 123.981 15.8465C126.816 15.8465 129.234 17.6365 130.179 20.1506H117.784ZM123.981 11.2332C117.787 11.2332 112.764 16.2759 112.764 22.4966C112.764 28.7173 117.787 33.7592 123.981 33.7592C128.232 33.7592 131.93 31.3862 133.833 27.8883L129.688 25.8692C128.536 27.8298 126.412 29.146 123.981 29.146C120.91 29.146 118.328 27.0464 117.579 24.1987H130.384C130.383 24.2008 130.382 24.2037 130.382 24.2062H135.072C135.157 23.6485 135.2 23.0775 135.2 22.4966C135.2 16.2759 130.177 11.2332 123.981 11.2332ZM136.503 33.1588H141.444V28.197H136.503V33.1588ZM144.049 33.1588H148.991V14.0689H144.049V33.1588ZM162.783 29.146C159.125 29.146 156.16 26.1688 156.16 22.4966C156.16 18.8236 159.125 15.8465 162.783 15.8465C166.441 15.8465 169.406 18.8236 169.406 22.4966C169.406 26.1688 166.441 29.146 162.783 29.146ZM162.781 11.2332C156.587 11.2332 151.564 16.2759 151.564 22.4966C151.564 28.7173 156.587 33.7592 162.781 33.7592C168.977 33.7592 174 28.7173 174 22.4966C174 16.2759 168.977 11.2332 162.781 11.2332ZM59.4651 18.3448V23.4751H66.3745C66.0138 24.941 65.3005 26.2547 64.2777 27.3041C62.7351 28.8871 60.5962 29.7592 58.2543 29.7592C53.395 29.7592 49.4411 25.7896 49.4411 20.9099C49.4411 16.0303 53.395 12.0602 58.2543 12.0602C60.8573 12.0602 63.25 13.1789 64.9088 15.1083L68.8647 11.8627C66.2419 8.77639 62.3504 6.92952 58.2543 6.92952C50.5775 6.92952 44.3318 13.2013 44.3318 20.9099C44.3318 28.6186 50.5775 34.8899 58.2543 34.8899C61.9818 34.8899 65.4179 33.5414 67.93 30.9638C70.0379 28.8003 71.4351 25.7825 71.7037 22.7593C71.8347 21.2846 71.8467 19.8199 71.7694 18.3448H59.4651ZM84.6349 29.1472C80.9773 29.1472 78.0118 26.1692 78.0118 22.4966C78.0118 18.8232 80.9773 15.8461 84.6349 15.8461C88.2929 15.8461 91.2583 18.8232 91.2583 22.4966C91.2583 26.1692 88.2929 29.1472 84.6349 29.1472ZM91.2591 13.4282C89.4024 12.0614 87.1131 11.2523 84.6349 11.2523C78.4408 11.2523 73.4195 16.2946 73.4195 22.5141C73.4195 28.7344 78.4408 33.7758 84.6349 33.7758C87.1131 33.7758 89.4024 32.9671 91.2591 31.6003V33.1588H95.8507V11.8697H91.2591V13.4282ZM105.707 6.9262H101.115V11.8876H98.3632V16.239H101.115V27.6265C101.115 28.8024 101.262 29.7916 101.554 30.568C101.842 31.336 102.282 31.9372 102.804 32.407C103.334 32.8837 103.956 33.2551 104.692 33.4659C105.441 33.6775 106.267 33.7592 107.14 33.7592C108.044 33.7592 108.85 33.665 109.538 33.4787C110.176 33.3065 110.788 33.063 111.358 32.7534V29.2472C110.452 29.6406 109.605 29.7829 108.639 29.8281C107.619 29.8763 107.016 29.5837 106.514 29.1032C105.988 28.5999 105.707 27.9439 105.707 26.8435V16.239H111.358V11.8876H105.707V6.9262Z" fill="white"/>
</g>
<g mask="url(#mask1_26_590)">
<path fill-rule="evenodd" clip-rule="evenodd" d="M19.9187 30.9997C13.8684 30.9997 8.96363 26.0753 8.96363 19.9998C8.96363 13.9247 13.8684 8.99946 19.9187 8.99946V-0.000488281C8.91776 -0.000488281 0 8.95381 0 19.9998C0 31.0454 8.91776 39.9997 19.9187 39.9997C30.9192 39.9997 39.8374 31.0454 39.8374 19.9998H30.8737C30.8737 26.0753 25.969 30.9997 19.9187 30.9997Z" fill="white"/>
</g>
<g mask="url(#mask2_26_590)">
<path fill-rule="evenodd" clip-rule="evenodd" d="M19.9187 19.9999H30.8737V9H19.9187V19.9999Z" fill="white"/>
</g>
</svg>
