<svg width="200" height="49" viewBox="0 0 200 49" fill="none" xmlns="http://www.w3.org/2000/svg">
<path d="M22.8126 0.811071C23.2856 0.531391 23.7585 0.251712 24.2315 0C32.2715 4.69863 40.3116 9.3693 48.3516 14.012C48.3794 21.004 48.3794 27.996 48.3516 34.96C40.2837 39.6307 32.2437 44.3014 24.2315 49C16.1636 44.3293 8.06788 39.6307 0 34.9321C0.0278203 27.9401 -0.0278207 20.976 0.0278198 14.012C0.445124 13.8162 0.834606 13.5925 1.22409 13.3407C8.42954 9.17351 15.6072 4.97831 22.8126 0.811071ZM23.9811 5.92922C17.8328 9.50913 11.6845 13.0611 5.53623 16.641C5.31367 16.8088 5.00765 16.8927 4.84072 17.1444C9.57017 19.8573 14.2996 22.6261 19.0291 25.367L19.3907 25.4789C20.8096 23.6889 22.3119 21.9829 23.7307 20.1929C20.9765 18.5708 18.2223 16.9486 15.4402 15.3824C15.7741 15.0188 16.2749 14.8231 16.6922 14.5434C18.0554 13.7323 19.3629 12.8653 20.7261 12.1102C28.321 16.5571 35.9716 20.8921 43.5665 25.339C43.5944 22.5982 43.5944 19.8293 43.5665 17.0885C37.2792 13.3687 30.9083 9.73287 24.6209 6.04109C24.3984 5.90125 24.1758 5.76142 23.9811 5.92922ZM28.488 23.0177C27.0691 24.8076 25.5668 26.5417 24.1202 28.3316C26.7353 29.8139 29.3226 31.3522 31.9377 32.8345C31.9377 32.8904 31.9377 33.0023 31.9377 33.0582C30.4076 34.0651 28.8496 35.044 27.3195 36.0788C27.1526 36.1906 26.9578 36.3864 26.7353 36.2466C19.4185 32.0234 12.1575 27.7163 4.81291 23.5491C4.75726 26.29 4.81291 29.0308 4.78509 31.7437C11.1559 35.5194 17.5824 39.1832 23.9811 42.9309C24.2593 43.1267 24.5375 42.7911 24.8157 42.7072C31.0196 39.0993 37.2513 35.4914 43.4553 31.8836C43.4553 31.8276 43.4274 31.6878 43.4274 31.6039C38.6145 28.8071 33.8016 26.0103 28.9887 23.2135C28.8496 23.1296 28.6827 23.0736 28.488 23.0177Z" fill="white"/>
<path d="M102.24 10.8517C105.049 10.572 108.026 10.8237 110.613 12.0543C112.895 13.173 114.675 15.0748 115.649 17.4241C116.984 20.5006 117.123 23.9687 116.845 27.2689C116.539 30.3733 115.399 33.5617 113.034 35.6873C110.669 37.8128 107.442 38.6799 104.298 38.6799C101.349 38.7078 98.2612 38.0925 95.8965 36.2466C93.504 34.4567 92.1408 31.576 91.64 28.6953C91.1949 26.0663 91.1949 23.3813 91.64 20.7523C92.1408 17.9276 93.4205 15.1587 95.7017 13.3408C97.5379 11.8305 99.8748 11.0754 102.24 10.8517ZM102.295 15.7461C100.737 16.1096 99.374 17.0885 98.5951 18.5149C97.5101 20.4167 97.2597 22.6542 97.2875 24.8077C97.3153 26.9612 97.5657 29.2267 98.6785 31.1005C99.5688 32.5269 101.015 33.4778 102.685 33.7295C104.799 34.0931 107.192 33.7295 108.777 32.1353C110.224 30.5971 110.725 28.4436 110.919 26.4019C111.003 24.556 111.031 22.7101 110.613 20.8922C110.224 19.1582 109.362 17.3962 107.804 16.4453C106.162 15.4664 104.131 15.3545 102.295 15.7461Z" fill="white"/>
<path d="M63.625 11.1873H69.3282C69.3282 14.7392 69.3282 18.2911 69.3282 21.8151C72.8891 21.8151 76.4501 21.8151 80.0111 21.8151C80.0111 18.2632 80.0111 14.7112 80.0111 11.1873H85.7143C85.7143 20.2209 85.7143 29.2826 85.7143 38.3163H80.039C80.039 34.4287 80.039 30.5132 80.039 26.6256C76.478 26.5976 72.917 26.6256 69.356 26.6256C69.356 30.5411 69.356 34.4287 69.356 38.3442H63.625C63.625 29.2826 63.625 20.2489 63.625 11.1873Z" fill="white"/>
<path d="M119.905 11.1873H140.242C140.242 12.7814 140.242 14.3756 140.242 15.9698C137.822 15.9698 135.373 15.9698 132.953 15.9698C132.953 23.4093 132.953 30.8768 132.953 38.3163H127.25C127.222 37.5331 127.278 36.75 127.222 35.9669C127.278 35.2118 127.278 34.4287 127.222 33.6736C127.278 29.3665 127.278 25.0594 127.222 20.7244C127.278 20.193 127.278 19.6616 127.222 19.1302C127.278 18.0954 127.222 17.0605 127.25 16.0257C124.802 15.9698 122.353 16.0257 119.905 15.9978C119.905 14.3756 119.905 12.7814 119.905 11.1873Z" fill="white"/>
<path d="M144.415 11.1873H152.622C155.376 11.1873 158.242 11.3271 160.746 12.5857C162.415 13.4527 163.5 15.1028 163.667 16.9766C163.75 18.2072 163.75 19.4658 163.333 20.6125C162.832 22.0668 161.692 23.3254 160.217 23.7449C159.995 23.8568 159.633 23.7729 159.577 24.0805C161.08 24.4161 162.638 25.1153 163.472 26.4858C164.502 28.1639 164.585 30.2894 164.279 32.1913C163.889 34.4287 162.248 36.2746 160.245 37.1975C157.852 38.3722 155.098 38.3722 152.511 38.3163H144.471C144.415 29.2826 144.415 20.2489 144.415 11.1873ZM150.118 15.8859C150.118 17.8716 150.118 19.8853 150.118 21.871C151.315 21.927 152.483 21.871 153.679 21.899C154.82 21.899 156.072 21.7871 156.99 21.06C157.852 20.3328 157.964 19.0742 157.769 18.0115C157.574 17.0326 156.684 16.3893 155.766 16.1935C153.93 15.746 152.038 15.9418 150.118 15.8859ZM150.118 26.5137C150.118 28.8631 150.118 31.2124 150.118 33.5617C151.621 33.5617 153.123 33.5897 154.653 33.5617C155.738 33.4498 156.907 33.1981 157.658 32.3591C158.465 31.492 158.52 30.2055 158.381 29.0868C158.186 27.8282 157.046 27.0172 155.877 26.7654C153.985 26.318 152.038 26.5417 150.118 26.5137Z" fill="white"/>
<path d="M169.787 11.1873H175.49C175.49 20.2209 175.49 29.2826 175.49 38.3163H169.787C169.787 29.2826 169.787 20.2489 169.787 11.1873Z" fill="white"/>
<path d="M179.663 11.1873C186.452 11.1873 193.212 11.1873 200 11.1873C200 12.7814 200 14.3756 200 15.9978C197.58 15.9978 195.132 15.9978 192.711 15.9978C192.711 23.4373 192.711 30.8768 192.711 38.3442C190.792 38.3442 188.872 38.3442 186.952 38.3442C186.952 30.9047 186.952 23.4373 186.952 15.9978C184.532 15.9978 182.084 15.9978 179.663 15.9978C179.636 14.4036 179.663 12.7814 179.663 11.1873Z" fill="white"/>
</svg>
