<svg width="114" height="24" viewBox="0 0 114 24" fill="none" xmlns="http://www.w3.org/2000/svg">
<path d="M0 0.813495V22.4135C0.00269172 22.7862 0.157328 23.1429 0.430453 23.4064C0.703578 23.67 1.07323 23.8192 1.45948 23.8218H18.1511C18.2478 23.8218 18.3435 23.8032 18.4327 23.7672C18.5219 23.7312 18.6028 23.6785 18.6707 23.612C18.7386 23.5456 18.7922 23.4668 18.8282 23.3802C18.8643 23.2936 18.8822 23.201 18.8808 23.1077V19.6069C18.8808 19.236 18.7281 18.8803 18.4563 18.6181C18.1846 18.3559 17.8159 18.2085 17.4316 18.2085H7.15354C6.97363 18.2085 6.80108 18.1396 6.67387 18.0168C6.54665 17.8941 6.47518 17.7276 6.47518 17.554V1.88457C6.47518 1.41639 6.28243 0.967377 5.93934 0.636322C5.59624 0.305266 5.1309 0.119283 4.64569 0.119283H0.770854C0.672817 0.115304 0.574938 0.130179 0.482913 0.163039C0.390889 0.1959 0.306557 0.246087 0.234823 0.310689C0.163089 0.375291 0.105383 0.453016 0.0650691 0.539336C0.0247552 0.625657 0.00263896 0.718849 0 0.813495Z" fill="white"/>
<path d="M39.2716 12.6843L38.881 12.3471C38.825 12.2961 38.7804 12.2346 38.7499 12.1664C38.7194 12.0982 38.7037 12.0247 38.7037 11.9504C38.7037 11.8761 38.7194 11.8026 38.7499 11.7344C38.7804 11.6662 38.825 11.6047 38.881 11.5537C39.3954 11.0803 39.8047 10.5109 40.0838 9.88005C40.363 9.24924 40.5063 8.57022 40.505 7.8843V6.46612C40.505 5.61698 40.3316 4.77614 39.9949 3.99164C39.6581 3.20713 39.1645 2.49432 38.5422 1.89389C37.9199 1.29345 37.1812 0.817158 36.3681 0.492206C35.5551 0.167253 34.6837 5.52236e-10 33.8037 5.52236e-10H22.7034C22.348 -9.98883e-06 22.0071 0.135507 21.7549 0.377008C21.5027 0.618509 21.3596 0.946418 21.3569 1.28926V22.7107C21.3596 23.0536 21.5027 23.3815 21.7549 23.623C22.0071 23.8645 22.348 24 22.7034 24H34.3381C36.1154 24 37.8199 23.3187 39.0767 22.1061C40.3334 20.8935 41.0394 19.2488 41.0394 17.5339V16.5421C41.0438 15.8151 40.8886 15.0954 40.5839 14.4305C40.2792 13.7655 39.8319 13.1704 39.2716 12.6843ZM33.187 18.6347C33.0864 19.3324 32.7059 19.9641 32.1275 20.3939C31.5491 20.8237 30.8189 21.0171 30.0941 20.9326C29.3693 20.8481 28.7079 20.4924 28.2522 19.9421C27.7965 19.3918 27.5829 18.6908 27.6574 17.9901C27.7057 17.4677 27.9131 16.9708 28.2535 16.562C28.3887 16.3935 28.5091 16.2144 28.6132 16.0264C29.2953 14.7726 29.6482 13.3764 29.641 11.9603C29.6166 10.8394 29.387 9.7314 28.9627 8.6876C28.7884 8.25723 28.5569 7.85052 28.2741 7.47769C27.9939 7.20507 27.7902 6.86809 27.6823 6.49852C27.5744 6.12894 27.5659 5.73895 27.6574 5.36529C27.7118 5.00629 27.8409 4.66163 28.037 4.35208C28.2332 4.04253 28.4922 3.7745 28.7986 3.56415C29.1049 3.35379 29.4522 3.20547 29.8196 3.12811C30.187 3.05076 30.5668 3.04597 30.9361 3.11405C31.6608 3.26019 32.2975 3.6739 32.7104 4.26685C33.1233 4.8598 33.2795 5.585 33.1459 6.28761C33.0888 6.6708 32.9294 7.03308 32.6834 7.33884C32.5441 7.50182 32.417 7.67416 32.3031 7.85454L32.2003 8.02314C31.5305 9.2459 31.1779 10.6071 31.1725 11.9901C31.1796 13.3636 31.5026 14.7185 32.1181 15.957C32.2006 16.1145 32.2933 16.2669 32.3956 16.4132C32.6925 16.702 32.918 17.0518 33.055 17.4365C33.1921 17.8212 33.2372 18.2308 33.187 18.6347Z" fill="white"/>
<path d="M66.1672 23.2063C65.0264 19.9931 60.124 5.11707 58.7879 1.03112C58.6807 0.738554 58.4814 0.485652 58.2179 0.30782C57.9543 0.129988 57.6398 0.036129 57.3182 0.0393888H51.0386C50.7171 0.036129 50.4025 0.129988 50.139 0.30782C49.8754 0.485652 49.6761 0.738554 49.569 1.03112C48.2329 5.11707 43.3305 19.9931 42.1897 23.2063C42.1674 23.2768 42.1624 23.3512 42.175 23.4238C42.1876 23.4965 42.2175 23.5653 42.2623 23.6249C42.3071 23.6845 42.3657 23.7332 42.4333 23.7673C42.501 23.8013 42.5759 23.8198 42.6522 23.8212H47.5135C47.7619 23.822 48.0045 23.7479 48.2072 23.6092C48.4099 23.4705 48.5626 23.2742 48.644 23.0476L50.0109 19.4377C50.0351 19.3672 50.0821 19.306 50.145 19.2632C50.2079 19.2203 50.2833 19.1981 50.3603 19.1997H57.976C58.0526 19.1996 58.1273 19.2224 58.1899 19.2651C58.2525 19.3077 58.2999 19.368 58.3254 19.4377L59.682 23.0476C59.7648 23.2734 59.9178 23.4689 60.1202 23.6074C60.3226 23.7459 60.5644 23.8206 60.8126 23.8212H65.6738C65.7535 23.8269 65.8333 23.8135 65.9062 23.7822C65.9792 23.7509 66.0429 23.7026 66.0918 23.6417C66.1407 23.5808 66.1731 23.5092 66.1863 23.4332C66.1994 23.3572 66.1929 23.2793 66.1672 23.2063ZM56.5371 15.1634H51.8506C51.7824 15.1634 51.7151 15.148 51.6543 15.1181C51.5935 15.0883 51.5409 15.045 51.5008 14.9918C51.4607 14.9386 51.4342 14.877 51.4236 14.812C51.4129 14.747 51.4184 14.6805 51.4395 14.6179L53.9164 7.50715C53.9359 7.45142 53.9734 7.40315 54.0233 7.36928C54.0731 7.33541 54.1329 7.31771 54.1938 7.31873C54.2552 7.31609 54.3157 7.33315 54.3659 7.36724C54.4161 7.40134 54.4532 7.45055 54.4713 7.50715L56.9482 14.6179C56.9693 14.6805 56.9748 14.747 56.9641 14.812C56.9534 14.877 56.927 14.9386 56.8869 14.9918C56.8467 15.045 56.7941 15.0883 56.7334 15.1181C56.6726 15.148 56.6053 15.1634 56.5371 15.1634Z" fill="white"/>
<path d="M67.8521 22.4033V1.76524C67.8519 1.33014 68.0282 0.912262 68.3432 0.600921C68.6581 0.289579 69.0869 0.10948 69.5377 0.0991211H73.0322C73.2898 0.0993368 73.5428 0.16441 73.7663 0.287901C73.9898 0.411393 74.1761 0.589034 74.3067 0.80326L81.676 13.1107C81.7118 13.163 81.7638 13.2031 81.8246 13.2252C81.8854 13.2473 81.9519 13.2503 82.0145 13.2338C82.0772 13.2174 82.1329 13.1822 82.1736 13.1334C82.2143 13.0845 82.238 13.0245 82.2413 12.9619V1.76524C82.244 1.32245 82.4282 0.89869 82.7537 0.586515C83.0792 0.274339 83.5194 0.0991133 83.9783 0.0991211H86.9076C87.1006 0.0991211 87.2917 0.135807 87.47 0.207078C87.6483 0.278348 87.8104 0.382808 87.9469 0.514498C88.0833 0.646188 88.1916 0.80253 88.2655 0.974592C88.3393 1.14665 88.3773 1.33106 88.3773 1.5173V22.1454C88.3773 22.5882 88.1957 23.013 87.8722 23.327C87.5487 23.6411 87.1095 23.8188 86.6506 23.8214H83.0944C82.8348 23.8192 82.5804 23.7511 82.3567 23.6241C82.133 23.497 81.9479 23.3154 81.8199 23.0975L74.6767 10.8099C74.6439 10.7559 74.5937 10.7138 74.5338 10.6898C74.4739 10.6659 74.4076 10.6614 74.3448 10.6771C74.2821 10.6928 74.2264 10.7278 74.1861 10.7768C74.1458 10.8258 74.1232 10.8862 74.1217 10.9487V22.1057C74.1217 22.5485 73.9401 22.9733 73.6166 23.2874C73.293 23.6014 72.8538 23.7791 72.395 23.7818H69.3732C69.1793 23.7884 68.986 23.7579 68.8044 23.6921C68.6228 23.6262 68.4565 23.5264 68.3151 23.3982C68.1737 23.2701 68.0599 23.1162 67.9805 22.9454C67.901 22.7746 67.8574 22.5904 67.8521 22.4033Z" fill="white"/>
<path d="M90.9255 0.505657V22.0462C90.9255 22.517 91.1194 22.9685 91.4644 23.3014C91.8094 23.6343 92.2774 23.8214 92.7653 23.8214H96.671C96.7827 23.8214 96.8899 23.7785 96.969 23.7023C97.048 23.626 97.0924 23.5226 97.0924 23.4147V14.8263C97.0951 14.6755 97.1591 14.5317 97.2706 14.426C97.3821 14.3202 97.5322 14.261 97.6885 14.261H98.7677C98.8563 14.2583 98.9444 14.2757 99.0247 14.3119C99.1051 14.3481 99.1755 14.402 99.2302 14.4693L106.713 23.3255C106.835 23.4762 106.991 23.5988 107.169 23.6845C107.347 23.7703 107.542 23.817 107.74 23.8214H113.733C113.784 23.8196 113.834 23.804 113.877 23.7763C113.92 23.7486 113.954 23.7099 113.975 23.6646C113.997 23.6192 114.004 23.5691 113.998 23.5197C113.991 23.4703 113.971 23.4236 113.938 23.385L105.14 13.1701C104.848 12.8261 104.688 12.3951 104.688 11.9503C104.688 11.5055 104.848 11.0744 105.14 10.7304L113.63 0.525489C113.663 0.487901 113.685 0.44173 113.692 0.392526C113.699 0.343321 113.692 0.293177 113.67 0.24813C113.648 0.203082 113.613 0.165048 113.57 0.138599C113.526 0.11215 113.476 0.0984127 113.424 0.0990423H107.802C107.605 0.105476 107.411 0.15211 107.234 0.235864C107.057 0.319619 106.9 0.438604 106.774 0.584998L99.4974 9.15359C99.4422 9.2179 99.3732 9.26983 99.2951 9.3058C99.217 9.34176 99.1317 9.36089 99.0452 9.36185H97.853C97.6976 9.36185 97.5486 9.3023 97.4387 9.19629C97.3288 9.09028 97.2671 8.94649 97.2671 8.79657V1.88417C97.2671 1.41335 97.0733 0.961821 96.7282 0.628906C96.3832 0.29599 95.9153 0.108962 95.4273 0.108962H91.4497C91.3874 0.093829 91.3223 0.0926636 91.2594 0.105557C91.1965 0.11845 91.1375 0.145059 91.0869 0.183346C91.0363 0.221634 90.9954 0.270591 90.9675 0.326456C90.9395 0.382322 90.9252 0.443618 90.9255 0.505657Z" fill="white"/>
</svg>
