<svg width="60" height="60" viewBox="0 0 60 60" fill="none" xmlns="http://www.w3.org/2000/svg">
<g clip-path="url(#clip0_25_335)">
<path d="M59.0328 37.5984L46.0584 15.0936C43.2144 10.4016 36.2784 10.3536 33.5328 15.2928L19.9104 38.6976C17.3664 42.9888 20.5104 48.3768 25.6008 48.3768H52.896C58.0344 48.3768 61.8768 42.8376 59.0328 37.5984Z" fill="#E0E0E0"/>
<path d="M40.32 39.3457L39.5208 37.9489C38.772 36.6505 37.1256 33.8569 37.1256 33.8569L26.148 14.7937C23.304 10.5529 16.5672 10.2025 13.7232 15.5425L0.947999 37.6489C-1.6968 42.2905 1.4472 48.3265 7.1856 48.3769H34.332H45.9096H52.7952C45.7608 48.4273 43.5144 44.7841 40.32 39.3457Z" fill="white"/>
<path d="M40.3223 39.3456L39.5231 37.9488C38.7743 36.6504 37.1279 33.8568 37.1279 33.8568L30.0407 21.3816L19.8599 38.748C17.3159 43.0392 20.4599 48.4296 25.5479 48.4296H34.2815H45.8591H52.7951C45.7103 48.3768 43.5143 44.784 40.3223 39.3456Z" fill="url(#paint0_linear_25_335)"/>
</g>
<defs>
<linearGradient id="paint0_linear_25_335" x1="16.8872" y1="30.8696" x2="46.4554" y2="42.4959" gradientUnits="userSpaceOnUse">
<stop stop-color="white"/>
<stop offset="1" stop-color="#EAEAEA"/>
</linearGradient>
<clipPath id="clip0_25_335">
<rect width="60" height="60" fill="white"/>
</clipPath>
</defs>
</svg>
