<svg width="171" height="40" viewBox="0 0 171 40" fill="none" xmlns="http://www.w3.org/2000/svg">
<g clip-path="url(#clip0_26_732)">
<path d="M87.9968 27.4925C88.0242 26.2986 89.0091 25.3587 90.1993 25.3861C91.3895 25.4136 92.3265 26.4016 92.2992 27.5954C92.2718 28.7618 91.3142 29.7017 90.1446 29.7017C88.9613 29.6811 87.9968 28.6932 87.9968 27.4925ZM114.474 10.2918V14.6623H107.915C105.712 14.6623 104.167 15.17 103.332 16.1854C102.518 17.1528 102.115 18.6005 102.115 20.5559C102.115 22.7377 102.771 24.3432 104.119 25.3587C104.652 25.7429 105.261 26.0173 105.89 26.1751C106.779 26.3535 107.662 26.429 108.578 26.4016H114.481V30.7721H106.985C105.364 30.8201 103.743 30.6211 102.197 30.134C100.979 29.7017 99.9189 28.9401 99.0845 27.9522C97.3129 25.8664 96.3963 23.1974 96.4989 20.453C96.4989 16.7961 97.5113 14.0722 99.5633 12.2952C100.398 11.5611 101.41 11.0259 102.504 10.7446C103.975 10.4153 105.466 10.2643 106.964 10.2849H114.474V10.2918ZM127.847 10.0173C131.52 10.0173 134.256 11.1082 135.979 13.2969C137.648 15.4307 138.49 18.0997 138.387 20.8166C138.517 23.6914 137.402 26.4839 135.35 28.4667C133.503 30.1957 130.966 31.0808 127.751 31.0808C124.434 31.0808 121.821 30.0928 119.926 28.1305C118.182 26.3535 117.32 23.7875 117.32 20.3775C117.245 17.7635 118.127 15.218 119.83 13.2352C121.691 11.1082 124.351 10.0379 127.847 10.0173ZM127.895 14.2849C124.605 14.2849 122.956 16.3913 122.956 20.5834C122.881 21.9281 123.161 23.2798 123.763 24.4942C124.625 25.9968 126.219 26.8544 127.942 26.7583C131.185 26.7583 132.806 24.6726 132.806 20.4805C132.812 16.4187 131.164 14.3604 127.895 14.2849ZM142.464 10.2918H162.601C163.996 10.2437 165.412 10.3947 166.78 10.6966C167.69 10.9504 168.531 11.4582 169.188 12.1717C170.453 13.7223 171.117 15.7052 170.987 17.736V30.7721H165.515V18.628C165.542 17.9419 165.487 17.2558 165.385 16.5697C165.309 16.1648 165.104 15.8081 164.803 15.5268C164.092 14.9161 163.155 14.5868 162.218 14.6623H159.304V30.7721H153.832V14.6623H147.929V30.7721H142.457L142.464 10.2918ZM56.7175 20.5353L48.8173 10.0379H55.0964L59.8365 17.0225L64.9529 10.0379H71.1567L62.9966 20.5353L71.1567 31.2317H65.1307L59.8365 23.9659L54.645 31.2317H48.5369L56.7175 20.5353ZM79.1595 13.8252H69.9119L73.1267 10.0379H92.2787V13.8252H84.2964V31.2592H79.1801L79.1595 13.8252Z" fill="white"/>
<path d="M87.9968 27.4924C88.0242 26.2986 89.0091 25.3586 90.1993 25.3861C91.3895 25.4135 92.3265 26.4015 92.2992 27.5953C92.2718 28.7617 91.3142 29.7017 90.1446 29.7017C88.9613 29.6811 87.9968 28.6931 87.9968 27.4924Z" fill="white"/>
<path d="M20.0891 40C9.06983 40.0755 0.0752271 31.1767 -1.28451e-05 20.1509C-0.0752528 9.09776 8.78939 0.0823228 19.7813 -9.92004e-06C30.8005 -0.0754816 39.7951 8.78901 39.8703 19.8422V19.9931C39.8977 31.0051 31.0536 39.9451 20.0891 40ZM20.0891 2.97769C10.7183 2.9228 3.06431 10.47 3.01643 19.8971C2.96855 29.2967 10.4857 36.9743 19.8839 37.0223C29.2547 37.0703 36.9086 29.53 36.9565 20.1235V19.9931C36.9565 10.6209 29.4325 3.02572 20.0891 2.97769ZM20.7936 17.2556L24.624 12.5557C25.0275 12.0755 24.9523 11.3345 24.4735 10.9297C24.2683 10.7787 24.0152 10.6758 23.7621 10.6758C23.4338 10.6758 23.1055 10.8267 22.9003 11.0806L19.3572 15.4237L15.7867 11.0806C15.5815 10.8267 15.2532 10.6758 14.9249 10.6758H11.9837C11.3475 10.6758 10.8414 11.211 10.8414 11.8422C10.8414 12.096 10.944 12.3499 11.0945 12.5557L16.3886 19.0326L9.65123 27.3139C9.24767 27.7942 9.26819 28.5077 9.75383 28.9125C10.2326 29.3173 10.944 29.2967 11.3475 28.8096L11.3749 28.7821L17.8592 20.8302L20.7936 17.2556ZM29.6651 10.6758C29.3367 10.6758 29.0084 10.8267 28.8032 11.0806L22.3463 19.0326L19.4051 22.6415L15.5815 27.3413C15.1779 27.8216 15.2258 28.5352 15.7115 28.94C16.1903 29.3448 16.9016 29.2967 17.3052 28.8096L20.8483 24.4665L24.3914 28.8096C24.5966 29.0635 24.9249 29.2144 25.2533 29.2144H28.1945C28.8306 29.2144 29.3367 28.7067 29.3367 28.0686C29.3367 27.7873 29.2341 27.5334 29.0563 27.3345L23.7895 20.8576L30.5269 12.5763C30.9305 12.0686 30.8279 11.3551 30.3491 10.9502C30.1712 10.7787 29.9181 10.7032 29.6651 10.6758Z" fill="white"/>
</g>
<defs>
<clipPath id="clip0_26_732">
<rect width="171" height="40" fill="white"/>
</clipPath>
</defs>
</svg>
