<svg width="184" height="49" viewBox="0 0 184 49" fill="none" xmlns="http://www.w3.org/2000/svg">
<path d="M6.2003 8.20511C6.63766 8.05078 7.12648 8.10223 7.58957 8.10223C20.6332 8.10223 33.7025 8.10223 46.7462 8.10223C47.9039 8.0765 48.8043 9.33687 48.4956 10.4172C48.367 11.5747 47.2864 12.6035 46.103 12.5521C32.8793 12.5521 19.6813 12.5521 6.45757 12.5521C5.58285 12.6035 4.78531 12.0377 4.55377 11.1888C4.2965 9.97992 4.99113 8.61666 6.2003 8.20511ZM10.8569 14.8156C11.1142 14.7642 11.3714 14.7384 11.6287 14.7642C21.8424 14.7642 32.0817 14.7642 42.2954 14.7642C43.3502 14.8156 44.1992 15.6902 44.1477 16.7705C44.1477 16.8991 44.122 17.0277 44.0963 17.1563C43.9934 18.3652 42.8871 19.4198 41.6522 19.3684C31.4128 19.3684 21.1735 19.3941 10.9598 19.3941C10.0851 19.3941 9.31328 18.8282 9.08173 17.9794C8.77301 16.6676 9.51909 15.15 10.8569 14.8156ZM21.9195 21.8634C22.3312 21.7862 22.7428 21.7348 23.1544 21.7605C26.1131 21.7605 29.0459 21.7605 32.0046 21.7605C32.6735 21.7605 33.1623 22.3264 33.2909 22.918C33.5224 24.3327 32.3133 25.7988 30.8726 25.7731H21.5336C20.8905 25.7731 20.3245 25.3101 20.1444 24.6928C19.9643 23.4581 20.7104 22.2492 21.9195 21.8634ZM20.9934 28.6282C21.2764 28.5253 21.5851 28.4739 21.8938 28.4739C25.0068 28.4739 28.094 28.4739 31.207 28.4739C31.9016 28.4482 32.3905 29.0398 32.5448 29.6571C32.7506 31.0203 31.6186 32.4093 30.2294 32.4865C27.065 32.4865 23.9263 32.4865 20.7618 32.4865C20.1186 32.4865 19.5527 32.0235 19.3983 31.4062C19.1925 30.2487 19.8614 29.0912 20.9934 28.6282ZM20.6846 35.2387C23.9263 35.1873 27.1679 35.2387 30.4095 35.213C31.0784 35.1873 31.6701 35.7789 31.773 36.4219C31.8759 37.4765 31.3099 38.5054 30.358 38.9684C29.792 39.3028 29.0974 39.1999 28.4799 39.2256H19.9643C19.3211 39.2256 18.7551 38.7626 18.6008 38.1196C18.3949 36.7563 19.3211 35.4959 20.6846 35.2387ZM19.3726 41.9521C22.5627 41.9007 25.7529 41.9521 28.9688 41.9264C29.6891 41.9007 30.3323 42.4408 30.4352 43.161C30.5381 44.1899 29.9978 45.193 29.0717 45.6818C28.5057 46.0161 27.8368 45.939 27.1936 45.939C24.3636 45.939 21.5336 45.939 18.7037 45.939C18.0605 45.939 17.4945 45.5274 17.2887 44.9101C17.0314 43.5468 17.9576 42.2093 19.3726 41.9521C19.3726 41.9778 19.3468 41.9778 19.3726 41.9521Z" fill="white"/>
<path d="M117.804 14.7642C118.55 14.5584 119.322 14.6098 120.043 14.8671C120.608 15.1243 120.814 15.7931 120.789 16.3589C120.789 19.3427 120.789 22.3007 120.789 25.2844C120.763 25.593 120.686 25.876 120.531 26.1332C119.271 28.7568 119.194 32.0235 120.557 34.6214C120.994 35.3673 120.737 36.2419 120.789 37.0392C120.866 38.0938 119.631 38.5311 118.782 38.4797C117.933 38.5311 116.749 38.0681 116.827 37.0392C116.827 30.0686 116.827 23.098 116.827 16.1017C116.775 15.4844 117.187 14.9185 117.804 14.7642ZM176.591 14.7385C177.337 14.6098 178.16 14.5584 178.829 14.9185C179.343 15.1757 179.498 15.7931 179.472 16.3332C179.472 23.2266 179.472 30.1458 179.472 37.0392C179.549 37.8623 178.726 38.3768 178.006 38.4539C177.028 38.634 175.459 38.3253 175.51 37.065C175.51 30.0944 175.51 23.1238 175.51 16.1274C175.484 15.4587 175.922 14.8671 176.591 14.7385ZM140.804 16.3332C140.881 14.7642 143.068 14.1983 144.149 15.15C144.56 15.5101 144.766 16.0245 144.74 16.5647C144.74 19.1112 144.74 21.6576 144.74 24.1784C145.487 22.6865 146.799 21.4004 148.497 21.066C150.375 20.7316 152.484 21.2718 153.848 22.6865C154.723 23.561 155.237 24.7442 155.623 25.9017C154.928 28.4739 154.928 31.1747 155.597 33.7469C155.134 35.2644 154.259 36.7306 152.896 37.6308C151.044 38.9169 148.445 38.9427 146.49 37.8366C145.718 37.3994 145.204 36.6534 144.818 35.8818C144.792 36.5505 144.946 37.3479 144.457 37.8881C143.814 38.5825 142.734 38.5826 141.885 38.3511C141.139 38.171 140.779 37.3222 140.804 36.602C140.804 29.8629 140.804 23.098 140.804 16.3332ZM147.416 24.5642C145.795 24.9757 145.126 26.7505 144.895 28.2424C144.638 30.1458 144.612 32.255 145.615 33.9526C146.85 35.9847 150.272 35.676 151.378 33.644C152.098 32.3579 152.15 30.8403 152.15 29.4256C152.098 28.0366 151.867 26.519 150.864 25.4644C149.989 24.5127 148.6 24.2555 147.416 24.5642ZM96.6309 20.14C98.2517 17.7222 100.85 16.1532 103.757 15.8445C106.098 15.6387 108.62 15.7931 110.652 17.1049C111.733 17.8251 112.839 18.5967 113.508 19.7285C113.765 20.1658 113.945 20.7574 113.636 21.2203C112.89 22.1463 111.475 22.5836 110.421 21.9148C109.777 21.4004 109.263 20.7574 108.568 20.3201C106.073 18.5967 102.291 19.1369 100.49 21.5805C99.0492 23.4324 98.5861 25.8503 98.7405 28.1138C98.8434 29.9915 99.4608 31.8949 100.747 33.2839C102.394 35.0587 105.198 35.7789 107.411 34.7757C109.366 33.9012 110.549 31.7663 110.523 29.6571C109.289 29.6314 108.028 29.6828 106.793 29.6314C106.253 29.5799 105.584 29.477 105.275 28.9883C104.709 27.9852 104.992 26.2361 106.33 26.0818C108.002 25.876 109.7 26.0303 111.372 25.9789C112.273 26.0046 113.328 25.8245 114.048 26.4933C114.588 27.1878 114.563 28.1395 114.588 28.9883C114.563 31.1747 114.177 33.4639 112.89 35.2902C111.681 37.0907 109.649 38.2482 107.539 38.6083C104.632 39.0713 101.468 38.6854 98.9978 36.9878C96.5794 35.3673 95.1387 32.5894 94.7528 29.7343C94.3412 26.4419 94.7785 22.918 96.6309 20.14ZM56.8825 19.2912C56.2651 18.2623 56.651 16.4618 58.0403 16.3847C62.6197 16.3332 67.1991 16.4104 71.7785 16.3589C70.2606 16.9763 70.415 19.5999 72.0615 19.9085C68.7942 24.77 65.5268 29.6571 62.2852 34.5442C65.2953 34.5442 68.3311 34.5442 71.3412 34.5442C72.2931 34.5185 73.0391 35.4445 72.9105 36.3705C73.0134 37.2707 72.3702 38.0681 71.4698 38.1453C71.4183 38.1453 71.3669 38.1453 71.3154 38.1453C66.8904 38.171 62.4653 38.171 58.0403 38.1453C57.0369 38.2224 56.1107 37.065 56.7539 36.1647C60.3042 30.7374 63.9318 25.3616 67.5078 19.96H58.4262C57.8087 20.0114 57.2427 19.7542 56.8825 19.2912ZM74.5828 16.3847C78.9306 16.3332 83.2785 16.3847 87.6264 16.3589C88.3467 16.2818 89.2215 16.539 89.5302 17.2849C89.7875 18.0823 89.7875 19.1883 89.0157 19.7028C88.604 19.96 88.1152 20.0629 87.6521 20.0114C86.2629 20.0114 84.8993 20.0114 83.5101 20.0114C83.5101 25.6188 83.5101 31.2518 83.5101 36.8592C83.5101 37.6308 82.9698 38.2996 82.198 38.4282C81.4776 38.5568 80.6544 38.5568 80.0369 38.1196C79.5995 37.7595 79.368 37.2193 79.4195 36.6534C79.4195 31.0975 79.4195 25.5673 79.4195 20.0114C77.953 20.0114 76.4608 20.0114 74.9944 20.0114C74.4284 20.0371 73.8881 19.7799 73.528 19.3427C72.9105 18.3138 73.2192 16.5133 74.5828 16.3847ZM128.893 21.066C130.874 20.603 132.932 20.9374 134.655 22.0177C136.585 23.2009 137.846 25.2844 138.283 27.4707C139.158 31.792 136.842 36.602 132.777 38.3511C130.719 39.277 128.327 39.2513 126.294 38.2739C124.699 37.4765 123.413 36.1647 122.641 34.5185C121.303 31.6634 121.56 28.191 123.155 25.4644C124.365 23.3038 126.449 21.7091 128.893 21.066ZM130.745 24.2812C129.716 27.1878 127.349 29.4256 124.39 30.2744C125.265 30.5831 126.114 30.9946 126.886 31.5348C128.532 32.6151 129.536 34.4156 130.102 36.2419C130.616 34.9043 131.414 33.6697 132.417 32.6408C133.575 31.5605 134.964 30.7631 136.482 30.3259C133.652 29.4513 131.465 27.1364 130.745 24.2812ZM162.261 21.2975C163.727 20.8602 165.399 20.7574 166.763 21.529C167.818 22.0949 168.538 23.1238 168.975 24.2298C169.001 23.4839 168.795 22.635 169.31 22.0177C170.236 20.7059 172.834 21.2203 172.912 22.918C172.937 27.4965 172.912 32.0492 172.912 36.6277C172.937 37.3222 172.577 38.0938 171.883 38.2996C171.034 38.5311 169.953 38.5568 169.284 37.8881C168.744 37.3736 168.898 36.5248 168.898 35.856C168.409 36.8592 167.74 37.8366 166.66 38.2482C164.242 39.1484 161.283 38.4797 159.611 36.4991C158.247 34.9043 157.707 32.7952 157.604 30.7374C157.501 28.6797 157.681 26.6219 158.556 24.7442C159.225 23.1495 160.537 21.7605 162.261 21.2975ZM164.37 24.5385C162.775 24.9243 161.9 26.5448 161.72 28.0623C161.515 29.8371 161.489 31.7406 162.235 33.4125C163.135 35.4188 166.223 35.9846 167.766 34.4156C168.795 33.2324 168.975 31.5605 168.975 30.0429C168.95 28.4739 168.744 26.7505 167.74 25.4644C166.943 24.487 165.528 24.2298 164.37 24.5385Z" fill="white"/>
</svg>
