<svg width="50" height="50" viewBox="0 0 50 50" fill="none" xmlns="http://www.w3.org/2000/svg">
<g clip-path="url(#clip0_25_272)">
<path d="M49.7828 26.3059C50.5578 12.6102 40.0891 0.921302 26.4003 0.197909C12.7115 -0.525483 0.986267 9.9906 0.211303 23.6862C-0.563662 37.3819 9.90507 49.0708 23.5939 49.7942C37.2827 50.5176 49.0079 40.0015 49.7828 26.3059Z" fill="white"/>
<path d="M47.5727 26.1891C48.2785 13.7158 38.7432 3.0701 26.2751 2.41121C13.8069 1.75233 3.12731 11.3298 2.42151 23.803C1.71572 36.2763 11.251 46.922 23.7192 47.5809C36.1873 48.2398 46.8669 38.6623 47.5727 26.1891Z" fill="#EA4745"/>
<path d="M39.3675 30.7354C40.1435 29.8501 40.6909 28.7993 40.9647 27.6696C41.2384 26.5399 41.2307 25.3635 40.9421 24.2372C40.6535 23.111 40.0923 22.067 39.3047 21.1913C38.5171 20.3156 37.5256 19.6331 36.4118 19.2C36.479 18.8457 36.5192 18.4871 36.5321 18.1272C36.6371 16.2665 35.9818 14.4403 34.7073 13.0419C33.4329 11.6435 31.6411 10.7846 29.7179 10.6501C28.0484 10.5737 26.4089 11.0987 25.1171 12.1236C23.9063 10.9867 22.3093 10.3138 20.6233 10.2301C19.6796 10.2051 18.7401 10.3623 17.86 10.6924C16.9798 11.0224 16.1766 11.5188 15.4972 12.1524C14.8179 12.7861 14.2762 13.5442 13.9036 14.3826C13.5311 15.2209 13.3353 16.1227 13.3276 17.035C13.3151 17.4235 13.333 17.8124 13.3811 18.1983C11.9563 18.6523 10.7128 19.5231 9.82262 20.6902C8.93246 21.8572 8.4397 23.2628 8.41255 24.7124C8.35702 26.2626 8.80608 27.7905 9.69649 29.081C9.97525 29.4781 10.2957 29.8463 10.6528 30.1797C11.4791 31.1977 12.1544 32.3223 12.6589 33.5208C13.555 35.8472 16.2767 40.4097 24.2678 40.6295C32.2456 41.1594 35.2816 36.8683 36.3048 34.6323C36.8738 33.4917 37.6253 32.4448 38.5316 31.5303C38.8324 31.2881 39.112 31.0222 39.3675 30.7354Z" fill="white"/>
<path d="M21.5602 21.3346C23.3751 20.8895 24.3751 18.7338 23.7937 16.5197C23.2122 14.3057 21.2696 12.8717 19.4547 13.3168C17.6397 13.7619 16.6398 15.9176 17.2212 18.1317C17.8026 20.3457 19.7453 21.7797 21.5602 21.3346Z" fill="#FF8300"/>
<path d="M17.2554 28.6498C18.821 27.625 19.0257 25.2755 17.7127 23.4019C16.3996 21.5284 14.066 20.8403 12.5003 21.8651C10.9347 22.8899 10.73 25.2394 12.0431 27.1129C13.3561 28.9865 15.6898 29.6745 17.2554 28.6498Z" fill="#FF8300"/>
<path d="M32.5863 18.6306C33.2195 16.4447 32.2625 14.2748 30.4487 13.7841C28.6349 13.2934 26.6512 14.6676 26.0179 16.8535C25.3847 19.0394 26.3417 21.2093 28.1555 21.7C29.9693 22.1907 31.9531 20.8165 32.5863 18.6306Z" fill="#FF8300"/>
<path d="M37.1175 28.2059C38.5204 26.4345 38.4238 24.0858 36.9017 22.9599C35.3796 21.8341 33.0084 22.3574 31.6054 24.1288C30.2025 25.9002 30.2991 28.2488 31.8212 29.3747C33.3433 30.5005 35.7145 29.9772 37.1175 28.2059Z" fill="#FF8300"/>
<path d="M30.3064 29.3719C28.9315 28.1604 27.951 26.5887 27.4844 24.8481C27.4004 24.1856 27.0799 23.5721 26.5783 23.1132C26.0766 22.6544 25.4251 22.3789 24.7359 22.3342C24.0459 22.3104 23.3703 22.5291 22.8342 22.9497C22.2981 23.3703 21.9379 23.9644 21.8203 24.622C21.8203 24.622 21.1115 27.3362 19.0251 28.7967L18.9649 28.8355L18.8579 28.9066C18.3717 29.2688 18.0096 29.7642 17.8189 30.3282C17.6282 30.8921 17.6177 31.4985 17.7887 32.0684C17.9598 32.6382 18.3044 33.145 18.7779 33.5228C19.2513 33.9006 19.8314 34.1318 20.4428 34.1864C20.715 34.2005 20.9879 34.1744 21.2519 34.1088C23.3552 33.6171 25.5605 33.7202 27.6047 34.4061C28.0324 34.5534 28.4905 34.5991 28.9402 34.5392C29.39 34.4793 29.8182 34.3157 30.1888 34.0622C30.5593 33.8087 30.8613 33.4727 31.0692 33.0826C31.277 32.6926 31.3847 32.2599 31.383 31.8211C31.4117 31.3602 31.3295 30.8992 31.1427 30.4742C30.9558 30.0492 30.6696 29.6719 30.3064 29.3719Z" fill="#FF8300"/>
<path d="M30.3064 29.3719C28.9315 28.1604 27.951 26.5887 27.4844 24.8481C27.4004 24.1856 27.0799 23.5721 26.5783 23.1132C26.0766 22.6544 25.4251 22.3789 24.7359 22.3342C24.0459 22.3104 23.3703 22.5291 22.8342 22.9497C22.2981 23.3703 21.9379 23.9644 21.8203 24.622C21.8203 24.622 21.1115 27.3362 19.0251 28.7967L18.9649 28.8355L18.8579 28.9066C18.3717 29.2688 18.0096 29.7642 17.8189 30.3282C17.6282 30.8921 17.6177 31.4985 17.7887 32.0684C17.9598 32.6382 18.3044 33.145 18.7779 33.5228C19.2513 33.9006 19.8314 34.1318 20.4428 34.1864C20.715 34.2005 20.9879 34.1744 21.2519 34.1088C23.3552 33.6171 25.5605 33.7202 27.6047 34.4061C28.0324 34.5534 28.4905 34.5991 28.9402 34.5392C29.39 34.4793 29.8182 34.3157 30.1888 34.0622C30.5593 33.8087 30.8613 33.4727 31.0692 33.0826C31.277 32.6926 31.3847 32.2599 31.383 31.8211C31.4117 31.3602 31.3295 30.8992 31.1427 30.4742C30.9558 30.0492 30.6696 29.6719 30.3064 29.3719Z" stroke="black" stroke-width="0.5" stroke-linecap="round" stroke-linejoin="round"/>
<path d="M39.3675 30.7354C40.1435 29.8501 40.6909 28.7993 40.9647 27.6696C41.2384 26.5399 41.2307 25.3635 40.9421 24.2372C40.6535 23.111 40.0923 22.067 39.3047 21.1913C38.5171 20.3156 37.5256 19.6331 36.4118 19.2C36.479 18.8457 36.5192 18.4871 36.5321 18.1272C36.6371 16.2665 35.9818 14.4403 34.7073 13.0419C33.4329 11.6435 31.6411 10.7846 29.7179 10.6501C28.0484 10.5737 26.4089 11.0987 25.1171 12.1236C23.9063 10.9867 22.3093 10.3138 20.6233 10.2301C19.6796 10.2051 18.7401 10.3623 17.86 10.6924C16.9798 11.0224 16.1766 11.5188 15.4972 12.1524C14.8179 12.7861 14.2762 13.5442 13.9036 14.3826C13.5311 15.2209 13.3353 16.1227 13.3276 17.035C13.3151 17.4235 13.333 17.8124 13.3811 18.1983C11.9563 18.6523 10.7128 19.5231 9.82262 20.6902C8.93246 21.8572 8.4397 23.2628 8.41255 24.7124C8.35702 26.2626 8.80608 27.7905 9.69649 29.081C9.97525 29.4781 10.2957 29.8463 10.6528 30.1797C11.4791 31.1977 12.1544 32.3223 12.6589 33.5208C13.555 35.8472 16.2767 40.4097 24.2678 40.6295C32.2456 41.1594 35.2816 36.8683 36.3048 34.6323C36.8738 33.4917 37.6253 32.4448 38.5316 31.5303C38.8324 31.2881 39.112 31.0222 39.3675 30.7354Z" stroke="black" stroke-width="0.5" stroke-linecap="round" stroke-linejoin="round"/>
<path d="M21.5602 21.3346C23.3751 20.8895 24.3751 18.7338 23.7937 16.5197C23.2122 14.3057 21.2696 12.8717 19.4547 13.3168C17.6397 13.7619 16.6398 15.9176 17.2212 18.1317C17.8026 20.3457 19.7453 21.7797 21.5602 21.3346Z" stroke="black" stroke-width="0.5" stroke-linecap="round" stroke-linejoin="round"/>
<path d="M17.2554 28.6498C18.821 27.625 19.0257 25.2755 17.7127 23.4019C16.3996 21.5284 14.066 20.8403 12.5003 21.8651C10.9347 22.8899 10.73 25.2394 12.0431 27.1129C13.3561 28.9865 15.6898 29.6745 17.2554 28.6498Z" stroke="black" stroke-width="0.5" stroke-linecap="round" stroke-linejoin="round"/>
<path d="M32.5863 18.6306C33.2195 16.4447 32.2625 14.2748 30.4487 13.7841C28.6349 13.2934 26.6512 14.6676 26.0179 16.8535C25.3847 19.0394 26.3417 21.2093 28.1555 21.7C29.9693 22.1907 31.9531 20.8165 32.5863 18.6306Z" stroke="black" stroke-width="0.5" stroke-linecap="round" stroke-linejoin="round"/>
<path d="M37.1175 28.2059C38.5204 26.4345 38.4238 24.0858 36.9017 22.9599C35.3796 21.8341 33.0084 22.3574 31.6054 24.1288C30.2025 25.9002 30.2991 28.2488 31.8212 29.3747C33.3433 30.5005 35.7145 29.9772 37.1175 28.2059Z" stroke="black" stroke-width="0.5" stroke-linecap="round" stroke-linejoin="round"/>
</g>
<defs>
<clipPath id="clip0_25_272">
<rect width="50" height="50" fill="white"/>
</clipPath>
</defs>
</svg>
