<svg width="258" height="137" viewBox="0 0 258 137" fill="none" xmlns="http://www.w3.org/2000/svg">
<g clip-path="url(#clip0_25_379)">
<path d="M195 68.9784C193.485 68.9784 192.541 68.0175 192.511 66.3774C192.509 65.8297 192.562 65.2831 192.669 64.7458C192.929 63.5009 192.767 62.2044 192.209 61.062C192.018 60.6516 191.852 60.2304 191.71 59.8005C191.341 58.7618 191.341 57.782 192.23 56.9809C192.674 56.5968 193.22 56.3508 193.801 56.2731C194.382 56.1954 194.973 56.2894 195.501 56.5435C195.975 56.7958 196.378 57.1743 196.816 57.5044C197.425 57.9502 198.021 58.4085 198.646 58.8269C199.271 59.2454 199.947 59.5397 200.513 59.9981C201.938 61.1482 202.064 62.7084 200.91 64.1381C200.771 64.3326 200.603 64.5037 200.41 64.6449C199.202 65.4096 198.194 66.4546 197.473 67.6916C196.957 68.5831 196.055 68.991 195 68.9784Z" fill="black"/>
<path d="M46.6089 68.3454C46.7369 69.4199 46.8481 70.4943 46.997 71.5645C47.167 72.7883 47.0096 73.8921 46.0319 74.7668C44.9053 75.7761 43.5962 75.7698 42.5388 74.6827C42.1274 74.2521 41.7624 73.7792 41.4499 73.2719C40.7809 72.1872 39.7669 71.3599 38.5715 70.9233C38.125 70.7566 37.6946 70.5497 37.2854 70.3051C36.3371 69.7269 35.628 68.9447 35.8399 67.742C35.9197 67.1951 36.1588 66.6839 36.5271 66.2725C36.8954 65.8611 37.3767 65.5677 37.9106 65.4291C38.3401 65.2875 38.7909 65.2213 39.2429 65.2336C40.3254 65.3093 41.2926 65.0002 42.2828 64.6133C42.9388 64.3399 43.6488 64.2218 44.3577 64.2685C46.055 64.4472 46.9404 65.7845 46.825 67.7672C46.8145 67.9565 46.7851 68.1457 46.7662 68.3349L46.6089 68.3454Z" fill="black"/>
<path d="M127.797 52.7315C127.967 51.2913 127.558 49.9981 126.792 48.7997C126.485 48.3171 126.243 47.7961 126.072 47.25C125.478 45.3345 126.955 43.6062 128.932 43.9784C129.668 44.1192 130.342 44.6091 131.042 44.933C131.743 45.2568 132.469 45.6394 133.197 45.959C133.782 46.2134 134.435 46.3375 134.976 46.6571C136.319 47.4498 136.738 48.8333 136.042 50.221C135.706 50.8897 135.175 51.4595 134.752 52.0881C134.268 52.7535 133.823 53.4456 133.417 54.1613C132.836 55.282 132.177 56.2387 130.816 56.4742C129.184 56.7559 127.933 55.8245 127.803 54.1613C127.767 53.6882 127.797 53.2088 127.797 52.7315Z" fill="black"/>
<path d="M235.042 37.6577C235.778 38.0046 236.51 38.3474 237.253 38.6985C237.952 39.0328 238.644 39.3819 239.351 39.7099C240.163 40.0904 241.042 40.3638 241.783 40.8516C242.286 41.1843 242.648 41.6927 242.798 42.278C242.948 42.8632 242.875 43.4834 242.594 44.0181C242.284 44.6489 241.755 45.1619 241.363 45.7486C240.889 46.4466 240.368 47.1279 240.008 47.8827C239.466 49.0265 238.841 50.0001 237.49 50.2839C236.139 50.5678 234.972 49.9433 234.645 48.5892C234.462 47.7527 234.366 46.8993 234.36 46.0429C234.34 45.0623 234.035 44.1088 233.483 43.299C233.11 42.7768 232.777 42.2272 232.486 41.6548C231.57 39.6951 232.786 37.8427 234.958 37.8427C234.979 37.7776 235.006 37.7208 235.042 37.6577Z" fill="black"/>
<path d="M66.2984 71.4699C67.4922 71.4257 68.3481 72.0019 68.9503 72.8597C69.5964 73.7828 70.4189 74.4535 71.3105 75.099C71.8308 75.4711 72.2981 75.9125 72.6994 76.411C73.6162 77.5738 73.526 78.9931 72.4497 80.0191C71.9588 80.4859 71.3084 80.7782 70.7587 81.1861C70.1373 81.6062 69.5551 82.0819 69.0195 82.6075C68.0796 83.6251 67.1313 84.4998 65.5872 84.1739C64.2235 83.8942 63.4263 82.8787 63.6172 81.4994C63.7264 80.7704 63.8926 80.0512 64.1144 79.3484C64.4404 78.3464 64.4514 77.2682 64.1459 76.2597C63.9773 75.7137 63.8406 75.1584 63.7368 74.5965C63.4011 72.7357 64.4753 71.4699 66.2984 71.4699Z" fill="black"/>
<path d="M177.704 45.2082C177.572 45.7494 177.394 46.2784 177.173 46.7894C176.581 47.9837 176.015 49.1548 175.792 50.5068C175.583 51.7999 174.729 52.6557 173.415 52.9816C172.194 53.2844 171.091 52.7713 170.629 51.6023C170.376 50.9354 170.188 50.2453 170.069 49.5417C169.882 48.431 169.361 47.404 168.575 46.5981C168.108 46.1236 167.682 45.6108 167.3 45.0652C166.725 44.2242 166.515 43.2906 167.128 42.3907C167.412 41.9307 167.82 41.5609 168.305 41.3242C168.791 41.0875 169.333 40.9936 169.87 41.0535C170.344 41.0947 170.807 41.2275 171.231 41.4445C172.102 41.9134 173.015 41.9933 173.978 42.0375C174.757 42.062 175.525 42.231 176.243 42.5358C177.187 42.9626 177.716 43.7869 177.704 45.2082Z" fill="black"/>
<path d="M28.9585 97.7821C28.9585 96.3103 30.6012 94.9898 32.1474 95.301C32.7391 95.4188 33.2971 95.7215 33.8615 95.957C34.728 96.3229 35.5818 96.7119 36.4462 97.0819C37.0987 97.3595 37.8036 97.5466 38.4015 97.9104C39.7484 98.7262 40.1261 100.169 39.3771 101.558C39.0761 102.096 38.705 102.591 38.2736 103.03C37.6642 103.666 37.2122 104.436 36.9539 105.278C36.6183 106.34 36.0056 107.191 34.8559 107.536C33.2174 108.034 31.9649 107.326 31.581 105.661C31.47 105.222 31.4115 104.772 31.4069 104.319C31.4424 102.875 30.9776 101.463 30.0914 100.324C29.5291 99.5945 28.9627 98.8019 28.9585 97.7821Z" fill="black"/>
<path d="M110.885 71.6297C110.791 72.6411 110.31 73.583 109.303 73.9173C107.415 74.5481 105.569 75.1915 103.785 76.0935C102.694 76.6444 101.559 76.1041 100.771 75.2168C100.015 74.3757 100.072 73.2845 100.672 72.4203C101.989 70.5279 102.684 68.4863 102.646 66.1545C102.627 65.0191 103.236 64.1591 104.417 63.8416C104.986 63.7012 105.585 63.7338 106.136 63.9352C106.687 64.1367 107.166 64.4979 107.511 64.9728C107.789 65.3287 108.002 65.7309 108.141 66.1608C108.418 67.1848 109.037 67.9838 109.677 68.7828C110.316 69.5818 110.841 70.4859 110.885 71.6297Z" fill="black"/>
<path d="M215.34 31.291C215.33 31.4965 215.305 31.7009 215.266 31.9029C214.834 33.5551 214.56 35.2448 214.448 36.9492C214.343 38.6964 212.585 39.9076 211.072 39.4891C210.559 39.3278 210.105 39.0166 209.769 38.5955C209.358 38.0426 209.033 37.43 208.806 36.7789C208.335 35.5175 207.451 34.4533 206.299 33.7595C206 33.5682 205.713 33.3575 205.441 33.1287C204.424 32.2877 204.025 31.1354 204.407 30.1725C204.864 29.0139 206.188 28.1035 207.422 28.3516C209.014 28.6712 210.552 28.5934 212.142 28.3516C213.928 28.093 215.358 29.4807 215.34 31.291Z" fill="black"/>
<path d="M148.124 75.9885C148.261 75.4376 148.324 74.8552 148.544 74.3443C149.229 72.8607 149.348 71.1767 148.877 69.6113C148.742 69.1546 148.683 68.6785 148.703 68.2026C148.779 66.5667 150.193 65.507 151.825 65.8245C152.874 66.0348 153.566 66.7013 154.192 67.5276C154.714 68.2173 155.356 68.8165 155.946 69.4557C156.535 70.0949 157.238 70.671 157.695 71.3985C158.413 72.5339 158.115 73.8354 157.112 74.7396C157.048 74.8102 156.973 74.8711 156.892 74.9204C155.225 75.7646 153.68 76.8296 152.297 78.0869C151.431 78.8691 150.279 78.7009 149.27 78.1774C148.42 77.7274 148.162 76.9284 148.124 75.9885Z" fill="black"/>
<path d="M0.264249 97.3385C0.278935 96.0138 1.02162 94.8994 2.3979 94.5462C3.78816 94.1687 5.11013 93.5733 6.31485 92.7821C8.36878 91.4953 10.301 92.3616 10.9052 94.727C10.974 94.9789 11.0252 95.2354 11.0584 95.4945C11.1948 96.6299 11.4046 97.719 11.9437 98.7703C12.5857 100.019 12.5354 101.293 11.5388 102.427C10.6535 103.423 9.44085 103.583 8.33731 102.83C8.03389 102.64 7.75244 102.416 7.49811 102.164C6.26659 100.829 4.74765 100.114 2.95806 99.8637C2.3517 99.7535 1.77243 99.5264 1.2524 99.1951C0.928229 99.0122 0.662975 98.7403 0.4879 98.4113C0.312825 98.0824 0.235226 97.7101 0.264249 97.3385Z" fill="black"/>
<path d="M11.197 129.315C11.0837 129.63 10.9515 130.305 10.62 130.86C9.98847 131.895 9.593 133.057 9.46196 134.262C9.42656 134.73 9.27867 135.182 9.03094 135.579C8.78322 135.977 8.44304 136.309 8.03952 136.546C6.53946 137.441 5.02891 136.991 4.33238 135.381C4.06587 134.719 3.84026 134.041 3.65683 133.352C3.40932 132.451 2.90562 131.641 2.20712 131.022C1.76444 130.629 1.33645 130.213 0.925245 129.784C-0.041927 128.779 -0.247529 127.814 0.26438 126.813C0.818249 125.738 2.15257 124.891 3.27919 125.219C5.06457 125.742 6.88353 125.934 8.70249 126.224C10.383 126.493 11.1865 127.547 11.197 129.315Z" fill="black"/>
<path d="M91.2121 49.649C91.0673 50.0695 90.7715 50.9 90.5113 51.7348C90.2386 52.6136 89.9092 53.4862 89.7603 54.3883C89.4917 56.0136 88.6001 57.1216 87.1399 57.4055C86.0531 57.6158 85.1363 57.231 84.6349 56.228C84.3354 55.6327 84.11 55.0028 83.9635 54.3525C83.6862 53.0596 82.9978 51.8917 82.0019 51.0241C81.57 50.647 81.1803 50.224 80.8396 49.7625C80.2438 48.9467 79.9585 48.0321 80.5354 47.0943C80.8119 46.6155 81.2184 46.2252 81.7075 45.9687C82.1966 45.7123 82.7483 45.6002 83.2985 45.6456C83.6331 45.6494 83.9635 45.721 84.2698 45.8558C85.495 46.4656 86.7874 46.3941 88.1049 46.4383C88.8066 46.4846 89.4897 46.6841 90.1064 47.0228C90.9288 47.4622 91.231 48.2907 91.2121 49.649Z" fill="black"/>
<path d="M250.915 10.5277C250.894 10.738 250.867 11.0198 250.831 11.3036C250.674 12.4092 250.702 13.5334 250.913 14.6299C251.194 16.0303 250.816 17.2855 249.48 18.0782C248.431 18.6964 247.401 18.5913 246.543 17.7292C246.185 17.3802 245.873 16.9866 245.616 16.558C244.883 15.1756 243.67 14.1104 242.206 13.5639C241.809 13.4047 241.435 13.1926 241.094 12.9331C240.285 12.3444 239.674 11.5875 239.871 10.5256C239.948 9.9888 240.18 9.48636 240.539 9.08077C240.899 8.67517 241.369 8.3843 241.892 8.2443C242.429 8.09081 243.022 8.15179 243.583 8.06558C244.422 7.93942 245.246 7.77542 246.075 7.60931C246.352 7.55464 246.614 7.42639 246.891 7.357C249.308 6.73883 250.882 7.95624 250.915 10.5277Z" fill="black"/>
<path d="M53.3329 62.3634C53.3225 64.2179 51.2811 66.31 49.4265 66.3689C49.1644 66.3831 48.9024 66.3386 48.6596 66.2386C48.4168 66.1387 48.1992 65.9859 48.0226 65.7912C47.8461 65.5966 47.715 65.3649 47.6388 65.1132C47.5627 64.8614 47.5434 64.5958 47.5824 64.3357C47.7922 62.5632 49.4202 60.8601 51.1846 60.551C52.4455 60.3407 53.3392 61.0913 53.3329 62.3634Z" fill="black"/>
<path d="M218.56 31.6337C216.837 31.6337 216.023 30.3869 216.806 28.8457C217.589 27.3044 218.917 26.4613 220.616 26.3078C222.215 26.1627 223.098 27.4201 222.531 28.9298C221.98 30.3995 220.177 31.6274 218.56 31.6337Z" fill="black"/>
<path d="M48.8893 59.1653C48.8238 59.9596 48.5524 60.7229 48.102 61.3798C47.6516 62.0366 47.0378 62.5641 46.3214 62.9101C44.8234 63.6586 43.4387 62.7335 43.5772 61.0556C43.7178 59.3314 44.5528 57.971 46.1388 57.1889C47.62 56.4593 48.8956 57.3066 48.8893 59.1653Z" fill="black"/>
<path d="M41.3492 97.8746C41.0835 97.8378 40.8201 97.7859 40.5603 97.719C39.4442 97.3952 38.9785 96.3796 39.4358 95.301C40.1428 93.6336 42.6688 92.4603 44.4081 92.9881C45.713 93.3897 46.12 94.6155 45.3479 95.835C44.6116 97.0062 42.973 97.8809 41.3492 97.8746Z" fill="black"/>
<path d="M217.307 21.8755C218.415 21.8902 219.196 22.807 219.055 23.9403C218.833 25.78 217.03 27.5294 215.178 27.7018C214.947 27.7318 214.713 27.7125 214.49 27.6451C214.267 27.5777 214.061 27.4638 213.886 27.3108C213.71 27.1579 213.569 26.9693 213.471 26.7577C213.373 26.546 213.322 26.316 213.319 26.0828C213.223 24.0832 215.35 21.8482 217.307 21.8755Z" fill="black"/>
<path d="M161.125 73.4548C162.625 73.5473 163.794 73.8754 164.679 74.8531C165.565 75.8308 165.332 77.1365 164.111 77.7421C162.642 78.4696 160.381 78.1079 159.193 76.9515C158.064 75.8539 158.316 74.4094 159.77 73.8081C160.212 73.655 160.665 73.5369 161.125 73.4548Z" fill="black"/>
<path d="M181.247 46.7579C180.865 46.696 180.489 46.6046 180.121 46.4846C179.17 46.1145 178.799 45.2398 179.137 44.2684C179.781 42.4181 182.802 41.1986 184.543 42.0859C185.619 42.6368 185.873 43.768 185.112 44.8067C184.193 46.0661 182.89 46.6233 181.247 46.7579Z" fill="black"/>
<path d="M11.1865 87.0755C11.1572 87.7293 10.9911 88.3695 10.6991 88.9549C10.4071 89.5402 9.99561 90.0575 9.49137 90.4733C8.19691 91.5477 6.70524 90.9927 6.39683 89.3358C6.13249 87.9018 6.54789 86.6508 7.43324 85.5385C8.15704 84.6259 9.12422 84.2538 9.91726 84.5418C10.7103 84.8299 11.1865 85.7298 11.1865 87.0755Z" fill="black"/>
<path d="M116.136 73.2551C114.77 73.1541 113.637 72.8346 112.756 71.9304C111.617 70.7677 111.949 69.2811 113.499 68.7765C115.219 68.2298 116.812 68.5662 118.115 69.8278C119.273 70.9443 118.906 72.4435 117.38 72.967C116.972 73.0905 116.557 73.1867 116.136 73.2551Z" fill="black"/>
<path d="M77.9128 83.1584C76.5072 83.0659 75.4729 82.822 74.6295 82.0797C73.4861 81.0705 73.6434 79.7143 74.9715 78.97C76.4757 78.1289 78.8863 78.5011 80.0654 79.7606C80.936 80.692 80.8123 81.922 79.694 82.5339C79.0667 82.8787 78.3219 83.0175 77.9128 83.1584Z" fill="black"/>
<path d="M161.916 72.7189C161.436 72.5444 160.561 72.353 159.818 71.9262C158.669 71.2639 158.618 69.9224 159.609 69.0435C160.951 67.8429 163.611 67.8051 164.981 68.9678C165.932 69.7731 165.97 70.8307 165.067 71.6823C164.293 72.4119 163.324 72.6158 161.916 72.7189Z" fill="black"/>
<path d="M178.633 42.0901C177.011 42.0901 176.239 40.9799 176.82 39.4744C177.45 37.8512 179.638 36.5602 181.316 36.8294C182.441 37.0102 183.035 37.9164 182.754 39.0182C182.321 40.7003 180.467 42.0838 178.633 42.0901Z" fill="black"/>
<path d="M16.2215 89.1045C16.2215 90.7866 14.9984 92.5675 13.4774 93.1121C12.2794 93.5431 11.2535 92.9565 11.0227 91.7118C10.7101 90.017 12.1913 87.5969 13.8424 87.1028C15.2795 86.6718 16.2215 87.4645 16.2215 89.1045Z" fill="black"/>
<path d="M44.8173 98.1226C45.325 98.2361 45.8663 98.2824 46.3341 98.4758C47.6726 99.0183 47.9643 100.32 47.0411 101.434C45.9733 102.725 43.4746 103.257 41.9892 102.507C40.7514 101.876 40.5101 100.654 41.4185 99.6091C42.1696 98.7533 43.6004 98.1394 44.8173 98.1226Z" fill="black"/>
<path d="M140.504 52.3886C139.594 52.3129 138.723 52.2015 138.045 51.535C137.745 51.2724 137.554 50.907 137.508 50.5103C137.463 50.1136 137.567 49.7142 137.8 49.3903C138.836 47.7398 142.048 47.2099 143.569 48.4399C144.356 49.0707 144.497 50.0085 143.874 50.8495C143.037 51.987 141.801 52.2856 140.504 52.3886Z" fill="black"/>
<path d="M16.4588 125.126C17.3714 125.213 18.2022 125.314 18.6113 126.159C19.0204 127.004 18.7477 127.816 18.1644 128.472C17 129.786 15.5566 130.459 13.7775 130.078C12.5712 129.817 12.0299 128.72 12.5649 127.603C13.3579 125.946 14.8286 125.333 16.4588 125.126Z" fill="black"/>
<path d="M114.722 78.5685C113.361 78.457 112.152 78.0113 111.237 76.9726C110.667 76.325 110.277 75.5765 110.661 74.6849C111.061 73.7535 111.919 73.5411 112.796 73.5537C113.441 73.5536 114.08 73.6889 114.669 73.9511C115.259 74.2133 115.787 74.5966 116.22 75.076C116.835 75.7405 117.244 76.4827 116.85 77.4036C116.455 78.3246 115.587 78.4718 114.722 78.5685Z" fill="black"/>
<path d="M94.8165 50.6583C93.9143 50.5763 93.0562 50.4102 92.666 49.4892C92.2947 48.6061 92.6786 47.8576 93.266 47.2079C93.7175 46.68 94.2813 46.2604 94.916 45.9798C95.5506 45.6993 96.24 45.565 96.9333 45.5868C97.7012 45.6036 98.4019 45.8454 98.7942 46.5771C99.1866 47.3088 98.9495 48.0195 98.5068 48.6566C97.611 49.9455 96.3018 50.4816 94.8165 50.6583Z" fill="black"/>
<path d="M206.106 61.5498C206.91 61.861 207.785 62.0607 208.502 62.5107C209.606 63.2025 209.61 64.4787 208.634 65.3513C207.317 66.533 204.59 66.573 203.249 65.4291C202.355 64.668 202.305 63.5662 203.148 62.7483C203.95 61.9703 204.955 61.739 206.031 61.7369L206.106 61.5498Z" fill="black"/>
<path d="M247.858 41.0725C248.347 41.1592 248.83 41.2765 249.304 41.4236C250.827 41.9977 251.121 43.4295 249.975 44.5923C248.83 45.755 246.545 46.1272 245.112 45.4333C243.776 44.7878 243.553 43.4632 244.6 42.3993C245.37 41.6213 246.616 41.1419 247.858 41.0725Z" fill="black"/>
<path d="M76.7275 77.7063C76.3205 77.5486 75.4981 77.3509 74.8099 76.9346C73.7987 76.3227 73.7253 75.1768 74.5162 74.3C75.7624 72.9186 78.5653 72.6915 80.0297 73.8501C81.0263 74.6407 81.0158 75.8917 80.0003 76.7243C79.1611 77.4035 78.1877 77.6369 76.7275 77.7063Z" fill="black"/>
<path d="M15.7873 122.313C15.6026 123.743 14.5662 124.809 13.0809 125.406C12.3992 125.655 11.6662 125.727 10.9493 125.617C10.0619 125.484 9.60451 124.611 9.74717 123.724C10.0388 121.905 12.2836 120.15 14.1194 120.301C15.1726 120.377 15.802 121.02 15.7873 122.313Z" fill="black"/>
<path d="M140.397 42.334C140.84 42.4014 141.277 42.5019 141.704 42.6347C142.638 42.9921 143.009 43.9257 142.646 44.8592C141.912 46.7516 138.893 47.847 137.125 46.8777C136.285 46.4194 136.013 45.5888 136.399 44.6805C136.965 43.3432 138.677 42.3613 140.397 42.334Z" fill="black"/>
<path d="M204.489 60.9801C203.991 60.8792 203.503 60.7335 203.031 60.5448C201.803 59.9645 201.587 58.7471 202.47 57.7105C203.538 56.4489 205.773 55.9086 207.321 56.5225C208.79 57.105 209.108 58.5389 207.984 59.6554C207.097 60.5385 205.97 60.877 204.489 60.9801Z" fill="black"/>
<path d="M246.623 35.8432C246.814 35.8432 247.004 35.8263 247.193 35.8432C248.815 36.0135 249.482 37.4538 248.574 38.8079C247.665 40.1619 245.624 41.003 244.071 40.654C242.519 40.3049 241.973 38.8772 242.976 37.6073C243.403 37.0464 243.955 36.5944 244.589 36.2878C245.222 35.9813 245.919 35.8289 246.623 35.8432Z" fill="black"/>
<path d="M253.605 9.44907C252.365 9.46379 251.654 8.70054 251.752 7.4642C251.895 5.67067 254.003 3.70894 255.78 3.71314C256.951 3.71314 257.616 4.47639 257.541 5.72114C257.434 7.49995 255.392 9.42805 253.605 9.44907Z" fill="black"/>
<path d="M247.875 4.10859C247.89 2.48748 249.17 0.685537 250.689 0.147268C252.101 -0.353154 253.233 0.462661 253.227 1.97444C253.221 3.48622 251.996 5.33862 250.573 5.93156C249.019 6.58758 247.858 5.8033 247.875 4.10859Z" fill="black"/>
<path d="M94.0339 40.7213C95.4081 40.7087 96.1948 41.6906 95.8822 43.0216C95.4878 44.7037 93.4045 46.2848 91.6863 46.2175C90.4275 46.1671 89.6974 45.2167 89.9554 43.9783C90.2806 42.3424 92.3115 40.7318 94.0339 40.7213Z" fill="black"/>
<path d="M5.59956 89.7563C5.3478 90.4397 5.17996 91.2282 4.78974 91.8758C3.97991 93.1941 2.39594 93.1521 1.59241 91.8337C0.788878 90.5154 0.801466 89.1003 1.55674 87.7547C2.41692 86.2197 4.17922 86.2471 4.99324 87.8114C5.28276 88.3665 5.37927 89.0225 5.59956 89.7563Z" fill="black"/>
<path d="M72.1938 73.5643C71.8242 73.5644 71.4624 73.4576 71.152 73.2565C70.8415 73.0554 70.5957 72.7688 70.4441 72.4309C70.0245 71.5121 70.4441 70.7299 71.0609 70.1012C72.07 69.0794 73.3036 68.5706 74.7512 68.9133C76.1632 69.2497 76.6394 70.4587 75.9282 71.7245C75.3135 72.8052 73.9351 73.5622 72.1938 73.5643Z" fill="black"/>
<path d="M113.025 63.3223C113.654 63.5557 114.351 63.6965 114.913 64.0414C116.025 64.7121 116.094 66.0578 115.146 66.9472C114.061 67.9627 112.047 68.2087 110.751 67.5044C109.393 66.7558 109.255 65.2861 110.446 64.2853C111.063 63.7722 112.024 63.4589 113.025 63.3223Z" fill="black"/>
<path d="M72.1771 82.353C73.5723 82.4792 74.745 83.0154 75.5234 84.2328C76.3773 85.5721 75.7122 86.9935 74.1387 87.1764C72.5652 87.3594 71.3085 86.7075 70.4001 85.4292C69.9679 84.8236 69.8001 84.1318 70.1903 83.4127C70.612 82.6053 71.3715 82.4455 72.1771 82.353Z" fill="black"/>
<path d="M244.76 50.9589C243.515 50.7823 242.452 50.4437 241.728 49.4282C241.122 48.5871 241.308 47.6031 242.148 46.9786C243.497 45.9694 245.924 46.2385 247.044 47.519C247.837 48.4336 247.714 49.6637 246.669 50.2755C246.088 50.6035 245.397 50.736 244.76 50.9589Z" fill="black"/>
<path d="M201.451 52.5716C202.204 52.5548 202.873 52.7293 203.289 53.4295C203.731 54.1759 203.582 54.9161 203.15 55.5889C202.334 56.8505 201.151 57.5527 199.63 57.517C198.161 57.4812 197.421 56.3227 197.928 54.9371C198.413 53.6145 199.953 52.5822 201.451 52.5716Z" fill="black"/>
<path d="M13.9411 135.705C13.211 135.494 12.5816 135.396 12.0529 135.116C10.7396 134.42 10.6032 132.933 11.7613 132C13.0201 130.986 14.4761 130.846 15.9279 131.464C17.493 132.13 17.6231 133.953 16.1692 134.851C15.4915 135.269 14.6565 135.44 13.9411 135.705Z" fill="black"/>
<path d="M38.1038 61.3374C38.215 60.0632 38.5464 59.0245 39.4612 58.2466C40.529 57.3509 41.8046 57.6452 42.3983 58.9047C43.0277 60.2546 42.5725 62.3299 41.4228 63.2844C40.2206 64.2853 38.8129 63.8942 38.3261 62.4055C38.2297 62.0546 38.1554 61.6978 38.1038 61.3374Z" fill="black"/>
<path d="M176.693 36.9471C176.693 38.5009 175.352 40.2083 173.837 40.5741C173.556 40.6562 173.258 40.669 172.971 40.6115C172.683 40.554 172.414 40.428 172.185 40.244C171.956 40.06 171.775 39.8234 171.657 39.5544C171.539 39.2854 171.487 38.9919 171.506 38.6986C171.534 37.1574 172.748 35.5636 174.234 35.1241C175.576 34.7162 176.688 35.5447 176.693 36.9471Z" fill="black"/>
<path d="M89.7393 41.3521C89.7226 42.8239 88.6127 44.4009 87.249 44.8782C85.7993 45.387 84.5657 44.4745 84.6895 42.927C84.7226 42.2066 84.9542 41.5095 85.3586 40.9131C85.763 40.3166 86.3244 39.8441 86.9805 39.5481C88.4344 38.8395 89.754 39.7268 89.7393 41.3521Z" fill="black"/>
<path d="M157.922 81.9936C156.562 81.8506 155.324 81.1925 154.636 79.7501C154.007 78.4318 154.724 77.227 156.176 77.0693C157.714 76.8969 159.487 77.965 160.074 79.42C160.63 80.793 159.705 82.0041 157.922 81.9936Z" fill="black"/>
<path d="M180.248 52.0755C179.443 52.0019 178.541 51.84 177.863 51.0914C177.553 50.7874 177.375 50.3732 177.367 49.9384C177.359 49.5036 177.522 49.0832 177.821 48.7681C178.971 47.4287 181.449 47.21 182.827 48.3244C183.744 49.0687 183.807 50.2294 182.98 51.0746C182.382 51.6781 181.373 52.0755 180.248 52.0755Z" fill="black"/>
<path d="M133.539 44.506C132.171 44.506 131.395 43.5367 131.695 42.1932C132.026 40.7066 133.682 39.3336 135.201 39.2873C136.604 39.2453 137.443 40.3092 137.104 41.7011C136.739 43.2087 135.083 44.506 133.539 44.506Z" fill="black"/>
<path d="M94.655 51.3943C95.3368 51.6823 96.09 51.8674 96.6859 52.2795C97.5586 52.885 97.5985 53.9616 96.9229 54.7921C95.8446 56.1168 93.3563 56.4237 91.9843 55.404C90.9877 54.666 90.9353 53.3834 91.8898 52.5087C92.5612 51.8884 93.4654 51.573 94.5795 51.5772L94.655 51.3943Z" fill="black"/>
<path d="M50.2656 71.7075C49.4118 71.7307 48.6879 71.451 48.2788 70.6899C47.8697 69.9287 48.1173 69.2181 48.5663 68.5452C49.3488 67.372 51.0356 66.6529 52.4287 66.9199C53.7693 67.1722 54.3777 68.4968 53.6749 69.7185C52.9238 71.0221 51.7174 71.5919 50.2656 71.7075Z" fill="black"/>
<path d="M137.376 52.8534C138.635 52.8534 139.648 53.2087 140.412 54.0939C141.251 55.0717 141.023 56.2954 139.894 56.9178C138.604 57.6305 136.581 57.3719 135.503 56.3479C134.932 55.8055 134.613 55.1452 134.844 54.3568C135.1 53.48 135.838 53.1267 136.646 52.9186C136.887 52.8732 137.131 52.8514 137.376 52.8534Z" fill="black"/>
<path d="M243.258 34.7184C243.258 36.5771 241.147 38.4421 239.309 38.1982C239.078 38.1713 238.855 38.0985 238.653 37.9841C238.45 37.8696 238.273 37.7159 238.13 37.5319C237.988 37.3478 237.884 37.1372 237.823 36.9122C237.763 36.6873 237.748 36.4525 237.78 36.2218C237.96 34.4913 239.79 32.8933 241.531 32.9438C241.763 32.9367 241.995 32.9782 242.21 33.0654C242.426 33.1527 242.621 33.2839 242.783 33.4508C242.946 33.6176 243.072 33.8164 243.153 34.0347C243.235 34.2529 243.27 34.4857 243.258 34.7184Z" fill="black"/>
<path d="M202.647 71.0411C201.862 70.69 201.015 70.4334 200.312 69.9646C199.347 69.3191 199.036 68.3771 199.309 67.5802C199.582 66.7833 200.494 66.1904 201.604 66.2177C202.152 66.2123 202.696 66.3179 203.202 66.5282C203.709 66.7385 204.168 67.0491 204.552 67.4414C205.124 68.0386 205.477 68.724 205.143 69.5735C204.81 70.4229 204.073 70.732 203.232 70.835C203.066 70.8445 202.899 70.8445 202.733 70.835L202.647 71.0411Z" fill="black"/>
<path d="M105.787 77.7442C105.787 76.6404 106.511 75.9297 107.627 75.9297C109.293 75.9297 111.103 77.6601 111.193 79.3317C111.252 80.4882 110.564 81.2472 109.418 81.2829C107.656 81.3355 105.781 79.5062 105.787 77.7442Z" fill="black"/>
<path d="M12.6802 96.4406C12.72 94.6029 14.967 92.7715 16.7566 93.1163C17.7594 93.3098 18.3426 94.1677 18.1832 95.2379C17.9377 96.8674 16.0286 98.4107 14.39 98.3035C13.2844 98.2383 12.655 97.5487 12.6802 96.4406Z" fill="black"/>
<path d="M4.55462 122.25C4.62251 121.556 4.87581 120.894 5.28785 120.332C5.69989 119.77 6.25543 119.33 6.89597 119.058C8.23029 118.459 9.41356 119.138 9.59609 120.589C9.80589 122.164 8.3268 124.205 6.77639 124.494C5.44207 124.74 4.53993 123.943 4.55462 122.25Z" fill="black"/>
<path d="M255.51 10.0693C256.649 10.0693 257.429 10.2796 257.818 11.1206C258.206 11.9617 257.912 12.7502 257.352 13.4335C256.433 14.5563 254.702 15.1282 253.443 14.7392C252.231 14.365 251.731 13.2968 252.312 12.1593C252.606 11.5532 253.059 11.0386 253.622 10.6705C254.185 10.3023 254.838 10.0946 255.51 10.0693Z" fill="black"/>
<path d="M242.439 4.10442C242.454 2.8828 242.873 1.82728 243.851 1.05563C244.93 0.204067 246.159 0.525763 246.709 1.77472C247.304 3.11198 246.855 5.10736 245.714 6.09559C245.173 6.56447 244.554 6.87356 243.826 6.61283C243.031 6.33108 242.647 5.68978 242.494 4.8971C242.458 4.63436 242.44 4.36956 242.439 4.10442Z" fill="black"/>
<path d="M41.7332 108.077C40.6443 107.913 39.7149 107.627 38.9911 106.84C38.1519 105.928 38.2757 104.801 39.2932 104.079C40.6024 103.152 42.9186 103.379 44.0389 104.546C44.9221 105.467 44.813 106.76 43.7032 107.395C43.1116 107.736 42.3941 107.856 41.7332 108.077Z" fill="black"/>
<path d="M218.467 37.0627C218.302 37.0732 218.136 37.0732 217.97 37.0627C217.068 36.9471 216.292 36.5875 216 35.6645C215.709 34.7414 216.17 34.0244 216.839 33.4841C218.035 32.5295 219.393 32.2351 220.84 32.826C222.068 33.3264 222.378 34.5921 221.57 35.6414C220.798 36.6527 219.726 37.0669 218.467 37.0627Z" fill="black"/>
<path d="M36.3077 95.4714C35.1748 95.4714 34.5308 94.8406 34.5245 93.7094C34.514 91.92 36.3602 90.1139 38.1477 90.1644C39.3687 90.2001 40.0946 91.1421 39.8869 92.4247C39.6226 94.0626 37.961 95.4756 36.3077 95.4714Z" fill="black"/>
<path d="M212.707 23.6564C212.69 25.1787 211.706 26.6757 210.418 27.1446C209.358 27.5315 208.391 27.0563 208.055 25.9861C207.571 24.4386 208.5 22.317 209.967 21.6211C211.494 20.8978 212.73 21.8145 212.707 23.6564Z" fill="black"/>
<path d="M158.216 68.276C156.665 68.276 155.809 67.8093 155.57 67.0292C155.264 66.0304 155.692 65.2441 156.439 64.6322C157.578 63.7028 158.862 63.3055 160.295 63.8669C161.44 64.3147 161.818 65.4606 161.163 66.5098C160.852 67.0224 160.421 67.4512 159.908 67.7589C159.394 68.0667 158.813 68.2442 158.216 68.276Z" fill="black"/>
</g>
<defs>
<clipPath id="clip0_25_379">
<rect width="258" height="137" fill="white"/>
</clipPath>
</defs>
</svg>
