<svg width="24" height="24" viewBox="0 0 24 24" fill="none" xmlns="http://www.w3.org/2000/svg">
<g clip-path="url(#clip0_25_506)">
<path d="M23.3592 12.5984C23.7154 6.30353 18.9194 0.93183 12.647 0.600363C6.37465 0.268895 1.00114 5.10318 0.644945 11.398C0.288752 17.6929 5.08477 23.0646 11.3571 23.3961C17.6295 23.7275 23.003 18.8933 23.3592 12.5984Z" fill="white"/>
<path d="M22.3443 12.5486C22.6677 6.81547 18.2986 1.92239 12.5855 1.61954C6.87253 1.3167 1.97904 5.71877 1.65564 11.4519C1.33224 17.1849 5.70138 22.078 11.4144 22.3809C17.1274 22.6837 22.0209 18.2816 22.3443 12.5486Z" fill="#EA4745"/>
<path d="M18.5851 14.638C18.9407 14.231 19.1915 13.7481 19.3169 13.2288C19.4424 12.7096 19.4388 12.1689 19.3066 11.6512C19.1744 11.1335 18.9172 10.6537 18.5563 10.2512C18.1954 9.84868 17.7411 9.53498 17.2307 9.33592C17.2615 9.17309 17.28 9.00829 17.2859 8.84284C17.334 7.98761 17.0337 7.14826 16.4498 6.5055C15.8658 5.86274 15.0448 5.46797 14.1636 5.40616C13.3986 5.37101 12.6474 5.61234 12.0554 6.0834C11.5006 5.56087 10.7689 5.25157 9.99636 5.21309C9.56392 5.20163 9.13346 5.27386 8.73016 5.42558C8.32685 5.57729 7.95881 5.80543 7.64754 6.09667C7.33627 6.3879 7.08802 6.73637 6.91733 7.12171C6.74663 7.50705 6.65691 7.92151 6.6534 8.34086C6.64766 8.51942 6.65585 8.69815 6.67792 8.87552C6.02506 9.08419 5.45526 9.48444 5.04738 10.0209C4.6395 10.5573 4.41372 11.2033 4.40128 11.8696C4.37583 12.5821 4.58159 13.2844 4.98959 13.8776C5.11731 14.0601 5.26415 14.2293 5.42776 14.3825C5.8064 14.8504 6.1158 15.3673 6.34699 15.9182C6.75758 16.9875 8.00468 19.0846 11.6663 19.1855C15.3218 19.4291 16.7129 17.4568 17.1817 16.4291C17.4425 15.9048 17.7868 15.4237 18.2021 15.0033C18.3399 14.892 18.468 14.7698 18.5851 14.638Z" fill="white"/>
<path d="M10.4246 10.3172C11.2563 10.1126 11.7144 9.1218 11.448 8.10416C11.1816 7.08652 10.2915 6.42741 9.45988 6.632C8.62826 6.83659 8.17007 7.8274 8.43649 8.84504C8.7029 9.86269 9.59303 10.5218 10.4246 10.3172Z" fill="#FF8300"/>
<path d="M8.45284 13.6792C9.17022 13.2081 9.26403 12.1282 8.66237 11.2671C8.0607 10.406 6.99141 10.0897 6.27403 10.5607C5.55665 11.0317 5.46284 12.1117 6.0645 12.9728C6.66617 13.8339 7.73546 14.1502 8.45284 13.6792Z" fill="#FF8300"/>
<path d="M15.4774 9.07427C15.7676 8.06956 15.3291 7.07223 14.498 6.84668C13.6669 6.62113 12.7579 7.25276 12.4678 8.25747C12.1776 9.26218 12.6161 10.2595 13.4472 10.4851C14.2783 10.7106 15.1873 10.079 15.4774 9.07427Z" fill="#FF8300"/>
<path d="M17.5532 13.4754C18.196 12.6612 18.1517 11.5817 17.4543 11.0642C16.7568 10.5468 15.6703 10.7873 15.0275 11.6015C14.3847 12.4157 14.4289 13.4952 15.1264 14.0127C15.8238 14.5301 16.9103 14.2896 17.5532 13.4754Z" fill="#FF8300"/>
<path d="M14.432 14.0114C13.802 13.4546 13.3528 12.7322 13.1389 11.9321C13.1004 11.6276 12.9536 11.3456 12.7238 11.1347C12.4939 10.9238 12.1954 10.7972 11.8796 10.7767C11.5634 10.7657 11.2538 10.8662 11.0082 11.0596C10.7626 11.2529 10.5975 11.526 10.5436 11.8282C10.5436 11.8282 10.2188 13.0757 9.26283 13.747L9.23525 13.7648L9.18622 13.7975C8.96343 13.964 8.79753 14.1917 8.71014 14.4509C8.62276 14.7101 8.61794 14.9889 8.69631 15.2508C8.77469 15.5127 8.93262 15.7456 9.14954 15.9193C9.36646 16.0929 9.6323 16.1992 9.91242 16.2243C10.0372 16.2308 10.1622 16.2188 10.2832 16.1886C11.2469 15.9626 12.2574 16.01 13.1941 16.3253C13.3901 16.393 13.5999 16.414 13.806 16.3864C14.0121 16.3589 14.2083 16.2837 14.3781 16.1672C14.5479 16.0507 14.6863 15.8963 14.7815 15.717C14.8768 15.5377 14.9261 15.3388 14.9253 15.1371C14.9385 14.9253 14.9008 14.7134 14.8152 14.518C14.7296 14.3227 14.5984 14.1493 14.432 14.0114Z" fill="#FF8300"/>
<path d="M14.432 14.0114C13.802 13.4546 13.3528 12.7322 13.1389 11.9321C13.1004 11.6276 12.9536 11.3456 12.7238 11.1347C12.4939 10.9238 12.1954 10.7972 11.8796 10.7767C11.5634 10.7657 11.2538 10.8662 11.0082 11.0596C10.7626 11.2529 10.5975 11.526 10.5436 11.8282C10.5436 11.8282 10.2188 13.0757 9.26283 13.747L9.23525 13.7648L9.18622 13.7975C8.96343 13.964 8.79753 14.1917 8.71014 14.4509C8.62276 14.7101 8.61794 14.9889 8.69631 15.2508C8.77469 15.5127 8.93262 15.7456 9.14954 15.9193C9.36646 16.0929 9.6323 16.1992 9.91242 16.2243C10.0372 16.2308 10.1622 16.2188 10.2832 16.1886C11.2469 15.9626 12.2574 16.01 13.1941 16.3253C13.3901 16.393 13.5999 16.414 13.806 16.3864C14.0121 16.3589 14.2083 16.2837 14.3781 16.1672C14.5479 16.0507 14.6863 15.8963 14.7815 15.717C14.8768 15.5377 14.9261 15.3388 14.9253 15.1371C14.9385 14.9253 14.9008 14.7134 14.8152 14.518C14.7296 14.3227 14.5984 14.1493 14.432 14.0114Z" stroke="black" stroke-width="0.5" stroke-linecap="round" stroke-linejoin="round"/>
<path d="M18.5851 14.638C18.9407 14.231 19.1915 13.7481 19.3169 13.2288C19.4424 12.7096 19.4388 12.1689 19.3066 11.6512C19.1744 11.1335 18.9172 10.6537 18.5563 10.2512C18.1954 9.84868 17.7411 9.53498 17.2307 9.33592C17.2615 9.17309 17.28 9.00829 17.2859 8.84284C17.334 7.98761 17.0337 7.14826 16.4498 6.5055C15.8658 5.86274 15.0448 5.46797 14.1636 5.40616C13.3986 5.37101 12.6474 5.61234 12.0554 6.0834C11.5006 5.56087 10.7689 5.25157 9.99636 5.21309C9.56392 5.20163 9.13346 5.27386 8.73016 5.42558C8.32685 5.57729 7.95881 5.80543 7.64754 6.09667C7.33627 6.3879 7.08802 6.73637 6.91733 7.12171C6.74663 7.50705 6.65691 7.92151 6.6534 8.34086C6.64766 8.51942 6.65585 8.69815 6.67792 8.87552C6.02506 9.08419 5.45526 9.48444 5.04738 10.0209C4.6395 10.5573 4.41372 11.2033 4.40128 11.8696C4.37583 12.5821 4.58159 13.2844 4.98959 13.8776C5.11731 14.0601 5.26415 14.2293 5.42776 14.3825C5.8064 14.8504 6.1158 15.3673 6.34699 15.9182C6.75758 16.9875 8.00468 19.0846 11.6663 19.1855C15.3218 19.4291 16.7129 17.4568 17.1817 16.4291C17.4425 15.9048 17.7868 15.4237 18.2021 15.0033C18.3399 14.892 18.468 14.7698 18.5851 14.638Z" stroke="black" stroke-width="0.5" stroke-linecap="round" stroke-linejoin="round"/>
<path d="M10.4246 10.3172C11.2563 10.1126 11.7144 9.1218 11.448 8.10416C11.1816 7.08652 10.2915 6.42741 9.45988 6.632C8.62826 6.83659 8.17007 7.8274 8.43649 8.84504C8.7029 9.86269 9.59303 10.5218 10.4246 10.3172Z" stroke="black" stroke-width="0.5" stroke-linecap="round" stroke-linejoin="round"/>
<path d="M8.45284 13.6792C9.17022 13.2081 9.26403 12.1282 8.66237 11.2671C8.0607 10.406 6.99141 10.0897 6.27403 10.5607C5.55665 11.0317 5.46284 12.1117 6.0645 12.9728C6.66617 13.8339 7.73546 14.1502 8.45284 13.6792Z" stroke="black" stroke-width="0.5" stroke-linecap="round" stroke-linejoin="round"/>
<path d="M15.4774 9.07427C15.7676 8.06956 15.3291 7.07223 14.498 6.84668C13.6669 6.62113 12.7579 7.25276 12.4678 8.25747C12.1776 9.26218 12.6161 10.2595 13.4472 10.4851C14.2783 10.7106 15.1873 10.079 15.4774 9.07427Z" stroke="black" stroke-width="0.5" stroke-linecap="round" stroke-linejoin="round"/>
<path d="M17.5532 13.4754C18.196 12.6612 18.1517 11.5817 17.4543 11.0642C16.7568 10.5468 15.6703 10.7873 15.0275 11.6015C14.3847 12.4157 14.4289 13.4952 15.1264 14.0127C15.8238 14.5301 16.9103 14.2896 17.5532 13.4754Z" stroke="black" stroke-width="0.5" stroke-linecap="round" stroke-linejoin="round"/>
</g>
<defs>
<clipPath id="clip0_25_506">
<rect width="24" height="24" fill="white"/>
</clipPath>
</defs>
</svg>
